<mxfile host="65bd71144e" scale="1" border="20">
    <diagram id="4_nfnfdhDg5d41BVBWpk" name="Page-1">
        <mxGraphModel dx="5087" dy="2746" grid="1" gridSize="10" guides="1" tooltips="1" connect="1" arrows="1" fold="1" page="1" pageScale="1" pageWidth="1169" pageHeight="827" background="#ffffff" math="0" shadow="0">
            <root>
                <mxCell id="0"/>
                <mxCell id="1" parent="0"/>
                <mxCell id="1450" style="edgeStyle=none;shape=connector;rounded=1;jumpStyle=arc;html=1;labelBackgroundColor=default;strokeColor=default;fontFamily=Helvetica;fontSize=11;fontColor=default;endArrow=none;endFill=0;exitX=1.001;exitY=0.449;exitDx=0;exitDy=0;exitPerimeter=0;" parent="1" source="1897" target="1443" edge="1">
                    <mxGeometry relative="1" as="geometry">
                        <Array as="points"/>
                        <mxPoint x="-2637.4700000000003" y="-1350" as="sourcePoint"/>
                    </mxGeometry>
                </mxCell>
                <mxCell id="1419" style="edgeStyle=none;shape=connector;rounded=1;jumpStyle=arc;html=1;labelBackgroundColor=default;strokeColor=default;fontFamily=Helvetica;fontSize=11;fontColor=default;endArrow=none;endFill=0;entryX=0.5;entryY=0;entryDx=0;entryDy=0;exitX=0.5;exitY=1;exitDx=0;exitDy=0;" parent="1" source="1897" target="1420" edge="1">
                    <mxGeometry relative="1" as="geometry">
                        <mxPoint x="-2977.4700000000003" y="-1240" as="targetPoint"/>
                        <Array as="points">
                            <mxPoint x="-2797.4700000000003" y="-1290"/>
                            <mxPoint x="-2987.4700000000003" y="-1290"/>
                            <mxPoint x="-2987.4700000000003" y="-1270"/>
                        </Array>
                        <mxPoint x="-2807.4700000000003" y="-1380" as="sourcePoint"/>
                    </mxGeometry>
                </mxCell>
                <mxCell id="1435" style="edgeStyle=none;shape=connector;rounded=1;jumpStyle=arc;html=1;entryX=0.5;entryY=0;entryDx=0;entryDy=0;labelBackgroundColor=default;strokeColor=default;fontFamily=Helvetica;fontSize=11;fontColor=default;endArrow=none;endFill=0;exitX=0.669;exitY=1.008;exitDx=0;exitDy=0;exitPerimeter=0;" parent="1" source="1897" target="1433" edge="1">
                    <mxGeometry relative="1" as="geometry">
                        <Array as="points">
                            <mxPoint x="-2780" y="-1280"/>
                            <mxPoint x="-2739" y="-1280"/>
                        </Array>
                        <mxPoint x="-2770" y="-1310" as="sourcePoint"/>
                    </mxGeometry>
                </mxCell>
                <mxCell id="1672" style="edgeStyle=none;html=1;endArrow=none;endFill=0;jumpStyle=arc;exitX=-0.005;exitY=0.575;exitDx=0;exitDy=0;entryX=1;entryY=0.5;entryDx=0;entryDy=0;exitPerimeter=0;" parent="1" source="1897" target="1669" edge="1">
                    <mxGeometry relative="1" as="geometry">
                        <Array as="points">
                            <mxPoint x="-2957.4700000000003" y="-1410"/>
                            <mxPoint x="-2957.4700000000003" y="-1381"/>
                        </Array>
                        <mxPoint x="-2937.6400000000003" y="-1433.09" as="sourcePoint"/>
                        <mxPoint x="-3039.6400000000003" y="-1436.09" as="targetPoint"/>
                    </mxGeometry>
                </mxCell>
                <mxCell id="1407" value="" style="edgeStyle=none;shape=connector;rounded=1;fillStyle=auto;html=1;labelBackgroundColor=default;strokeColor=default;strokeWidth=1;fontFamily=Helvetica;fontSize=11;fontColor=default;endArrow=none;startSize=6;endSize=6;fillColor=#000000;entryX=0.5;entryY=0;entryDx=0;entryDy=0;exitX=0.591;exitY=0.999;exitDx=0;exitDy=0;exitPerimeter=0;" parent="1" source="1897" target="1411" edge="1">
                    <mxGeometry relative="1" as="geometry">
                        <mxPoint x="-2878.12" y="-1210.28" as="sourcePoint"/>
                        <Array as="points">
                            <mxPoint x="-2787.4700000000003" y="-1270"/>
                            <mxPoint x="-2880" y="-1270"/>
                        </Array>
                    </mxGeometry>
                </mxCell>
                <mxCell id="1408" value="(0, 1)" style="edgeLabel;html=1;align=center;verticalAlign=middle;resizable=0;points=[];fontSize=11;fontFamily=Helvetica;fontColor=default;" parent="1407" vertex="1" connectable="0">
                    <mxGeometry x="-0.2675" y="1" relative="1" as="geometry">
                        <mxPoint x="-72" y="83" as="offset"/>
                    </mxGeometry>
                </mxCell>
                <mxCell id="1409" value="" style="edgeStyle=none;shape=connector;rounded=1;fillStyle=auto;html=1;labelBackgroundColor=default;strokeColor=default;strokeWidth=1;fontFamily=Helvetica;fontSize=11;fontColor=default;endArrow=none;startSize=6;endSize=6;fillColor=#000000;entryX=0.478;entryY=0.011;entryDx=0;entryDy=0;entryPerimeter=0;" parent="1" source="1411" target="1413" edge="1">
                    <mxGeometry relative="1" as="geometry">
                        <mxPoint x="-2860" y="-1120" as="targetPoint"/>
                    </mxGeometry>
                </mxCell>
                <mxCell id="1410" value="(1, 1)" style="edgeLabel;html=1;align=center;verticalAlign=middle;resizable=0;points=[];fontSize=11;fontFamily=Helvetica;fontColor=default;" parent="1409" vertex="1" connectable="0">
                    <mxGeometry x="-0.327" y="1" relative="1" as="geometry">
                        <mxPoint x="-19" y="-9" as="offset"/>
                    </mxGeometry>
                </mxCell>
                <mxCell id="1411" value="controllo" style="rhombus;whiteSpace=wrap;html=1;" parent="1" vertex="1">
                    <mxGeometry x="-2920" y="-1191" width="80" height="40.28" as="geometry"/>
                </mxCell>
                <mxCell id="1421" style="edgeStyle=none;shape=connector;rounded=1;jumpStyle=arc;html=1;exitX=0;exitY=0.25;exitDx=0;exitDy=0;entryX=0.5;entryY=1;entryDx=0;entryDy=0;labelBackgroundColor=default;strokeColor=default;fontFamily=Helvetica;fontSize=11;fontColor=default;endArrow=none;endFill=0;" parent="1" source="1413" target="1420" edge="1">
                    <mxGeometry relative="1" as="geometry">
                        <Array as="points">
                            <mxPoint x="-2987.4700000000003" y="-1080"/>
                        </Array>
                    </mxGeometry>
                </mxCell>
                <mxCell id="1413" value="CANALE" style="rounded=0;whiteSpace=wrap;html=1;" parent="1" vertex="1">
                    <mxGeometry x="-2918.66" y="-1090.28" width="80" height="40" as="geometry"/>
                </mxCell>
                <mxCell id="1415" value="" style="endArrow=oval;html=1;fillStyle=auto;strokeWidth=1;startSize=6;endSize=6;fillColor=#000000;startArrow=none;startFill=0;endFill=0;" parent="1" source="1413" edge="1">
                    <mxGeometry width="50" height="50" relative="1" as="geometry">
                        <mxPoint x="-2828.66" y="-1080.28" as="sourcePoint"/>
                        <mxPoint x="-2860" y="-1020" as="targetPoint"/>
                    </mxGeometry>
                </mxCell>
                <mxCell id="1416" value="trailer" style="edgeLabel;html=1;align=center;verticalAlign=middle;resizable=0;points=[];" parent="1415" vertex="1" connectable="0">
                    <mxGeometry x="0.4791" y="1" relative="1" as="geometry">
                        <mxPoint x="23" y="9" as="offset"/>
                    </mxGeometry>
                </mxCell>
                <mxCell id="1417" value="" style="endArrow=oval;html=1;fillStyle=auto;strokeWidth=1;startSize=6;endSize=6;fillColor=#000000;startArrow=none;startFill=0;endFill=0;" parent="1" source="1413" edge="1">
                    <mxGeometry width="50" height="50" relative="1" as="geometry">
                        <mxPoint x="-2589.794" y="-890" as="sourcePoint"/>
                        <mxPoint x="-2930" y="-1120" as="targetPoint"/>
                    </mxGeometry>
                </mxCell>
                <mxCell id="1418" value="descrizione" style="edgeLabel;html=1;align=center;verticalAlign=middle;resizable=0;points=[];" parent="1417" vertex="1" connectable="0">
                    <mxGeometry x="0.4791" y="1" relative="1" as="geometry">
                        <mxPoint x="-24" y="-20" as="offset"/>
                    </mxGeometry>
                </mxCell>
                <mxCell id="1420" value="follower" style="rhombus;whiteSpace=wrap;html=1;" parent="1" vertex="1">
                    <mxGeometry x="-3026.88" y="-1234.72" width="80" height="40" as="geometry"/>
                </mxCell>
                <mxCell id="1424" value="(0,N)" style="edgeLabel;html=1;align=center;verticalAlign=middle;resizable=0;points=[];fontSize=11;fontFamily=Helvetica;fontColor=default;" parent="1" vertex="1" connectable="0">
                    <mxGeometry x="-3012.2735566657902" y="-1244.4375837496716" as="geometry">
                        <mxPoint x="6" y="3" as="offset"/>
                    </mxGeometry>
                </mxCell>
                <mxCell id="1425" value="(0,N)" style="edgeLabel;html=1;align=center;verticalAlign=middle;resizable=0;points=[];fontSize=11;fontFamily=Helvetica;fontColor=default;" parent="1" vertex="1" connectable="0">
                    <mxGeometry x="-3012.2735566657902" y="-1190.9975837496715" as="geometry">
                        <mxPoint x="6" y="3" as="offset"/>
                    </mxGeometry>
                </mxCell>
                <mxCell id="1427" value="(0, N)" style="edgeLabel;html=1;align=center;verticalAlign=middle;resizable=0;points=[];fontSize=11;fontFamily=Helvetica;fontColor=default;" parent="1" vertex="1" connectable="0">
                    <mxGeometry x="-2724.2799999999997" y="-1191" as="geometry">
                        <mxPoint x="4" y="10" as="offset"/>
                    </mxGeometry>
                </mxCell>
                <mxCell id="1428" value="(0, N)" style="edgeLabel;html=1;align=center;verticalAlign=middle;resizable=0;points=[];" parent="1" vertex="1" connectable="0">
                    <mxGeometry x="-2679.18" y="-1089.26" as="geometry">
                        <mxPoint x="-39" y="-153" as="offset"/>
                    </mxGeometry>
                </mxCell>
                <mxCell id="1434" style="edgeStyle=none;shape=connector;rounded=1;jumpStyle=none;html=1;exitX=0.5;exitY=1;exitDx=0;exitDy=0;entryX=0.858;entryY=0.012;entryDx=0;entryDy=0;labelBackgroundColor=default;strokeColor=default;fontFamily=Helvetica;fontSize=11;fontColor=default;endArrow=none;endFill=0;entryPerimeter=0;" parent="1" source="1433" target="1413" edge="1">
                    <mxGeometry relative="1" as="geometry">
                        <Array as="points">
                            <mxPoint x="-2739" y="-1150"/>
                            <mxPoint x="-2850" y="-1150"/>
                        </Array>
                    </mxGeometry>
                </mxCell>
                <mxCell id="1433" value="abbonamento" style="rhombus;whiteSpace=wrap;html=1;" parent="1" vertex="1">
                    <mxGeometry x="-2799.18" y="-1230.36" width="120" height="39.36" as="geometry"/>
                </mxCell>
                <mxCell id="1438" style="edgeStyle=none;jumpStyle=arc;html=1;endArrow=none;endFill=0;startArrow=none;" parent="1" source="1443" target="1441" edge="1">
                    <mxGeometry relative="1" as="geometry">
                        <mxPoint x="-2707.9405882352944" y="-1434.73" as="targetPoint"/>
                        <mxPoint x="-2501.65" y="-1362.96" as="sourcePoint"/>
                    </mxGeometry>
                </mxCell>
                <mxCell id="1439" value="(1, 1)" style="edgeLabel;html=1;align=center;verticalAlign=middle;resizable=0;points=[];" parent="1438" vertex="1" connectable="0">
                    <mxGeometry x="-0.3959" y="2" relative="1" as="geometry">
                        <mxPoint x="-1" y="-7" as="offset"/>
                    </mxGeometry>
                </mxCell>
                <mxCell id="1441" value="PORTAFOGLIO" style="whiteSpace=wrap;html=1;" parent="1" vertex="1">
                    <mxGeometry x="-2436.8300000000004" y="-1434.73" width="100" height="40" as="geometry"/>
                </mxCell>
                <mxCell id="1442" value="(0, 1)" style="edgeLabel;html=1;align=center;verticalAlign=middle;resizable=0;points=[];" parent="1" vertex="1" connectable="0">
                    <mxGeometry x="-2632.461782318256" y="-1424" as="geometry"/>
                </mxCell>
                <mxCell id="1443" value="conto" style="rhombus;whiteSpace=wrap;html=1;" parent="1" vertex="1">
                    <mxGeometry x="-2610" y="-1434.73" width="80" height="40" as="geometry"/>
                </mxCell>
                <mxCell id="1444" value="" style="endArrow=oval;html=1;fillStyle=auto;strokeWidth=1;startSize=6;endSize=6;fillColor=#000000;startArrow=none;startFill=0;endFill=0;exitX=0.428;exitY=0.008;exitDx=0;exitDy=0;exitPerimeter=0;" parent="1" source="1441" edge="1">
                    <mxGeometry width="50" height="50" relative="1" as="geometry">
                        <mxPoint x="-2472.46" y="-1461.68" as="sourcePoint"/>
                        <mxPoint x="-2394" y="-1460" as="targetPoint"/>
                    </mxGeometry>
                </mxCell>
                <mxCell id="1445" value="totale bits" style="edgeLabel;html=1;align=center;verticalAlign=middle;resizable=0;points=[];" parent="1444" vertex="1" connectable="0">
                    <mxGeometry x="0.4791" y="1" relative="1" as="geometry">
                        <mxPoint x="32" y="-10" as="offset"/>
                    </mxGeometry>
                </mxCell>
                <mxCell id="1469" value="(0, N)" style="edgeStyle=none;jumpStyle=arc;html=1;endArrow=none;endFill=0;entryX=0.055;entryY=0.485;entryDx=0;entryDy=0;exitX=0.775;exitY=1.014;exitDx=0;exitDy=0;exitPerimeter=0;entryPerimeter=0;" parent="1" source="1897" target="1471" edge="1">
                    <mxGeometry x="0.8382" y="12" relative="1" as="geometry">
                        <mxPoint x="-2448.4700000000003" y="-1230.28" as="targetPoint"/>
                        <Array as="points">
                            <mxPoint x="-2770" y="-1298"/>
                            <mxPoint x="-2630" y="-1298"/>
                            <mxPoint x="-2610" y="-1298"/>
                        </Array>
                        <mxPoint as="offset"/>
                        <mxPoint x="-2777.4700000000003" y="-1390" as="sourcePoint"/>
                    </mxGeometry>
                </mxCell>
                <mxCell id="1470" value="(1, 1)" style="edgeStyle=none;jumpStyle=arc;html=1;exitX=1;exitY=0.5;exitDx=0;exitDy=0;entryX=0;entryY=0.5;entryDx=0;entryDy=0;startArrow=none;startFill=0;endArrow=none;endFill=0;" parent="1" source="1471" target="1472" edge="1">
                    <mxGeometry x="-0.6389" y="11" relative="1" as="geometry">
                        <mxPoint as="offset"/>
                    </mxGeometry>
                </mxCell>
                <mxCell id="1471" value="streaming" style="rhombus;whiteSpace=wrap;html=1;" parent="1" vertex="1">
                    <mxGeometry x="-2610" y="-1318.6400000000003" width="80" height="40" as="geometry"/>
                </mxCell>
                <mxCell id="1472" value="PROGRAMMAZIONE" style="whiteSpace=wrap;html=1;" parent="1" vertex="1">
                    <mxGeometry x="-2419.24" y="-1318.6400000000003" width="140" height="40" as="geometry"/>
                </mxCell>
                <mxCell id="1473" style="edgeStyle=none;shape=connector;rounded=1;fillStyle=auto;html=1;labelBackgroundColor=default;strokeColor=default;strokeWidth=1;fontFamily=Helvetica;fontSize=11;fontColor=default;endArrow=none;endFill=0;startSize=6;endSize=6;fillColor=#000000;startArrow=oval;startFill=0;" parent="1" target="1472" edge="1">
                    <mxGeometry relative="1" as="geometry">
                        <mxPoint x="-2389.366050420168" y="-1299.3700000000003" as="targetPoint"/>
                        <mxPoint x="-2314" y="-1343.2400000000002" as="sourcePoint"/>
                    </mxGeometry>
                </mxCell>
                <mxCell id="1475" style="edgeStyle=none;shape=connector;rounded=1;fillStyle=auto;html=1;labelBackgroundColor=default;strokeColor=default;strokeWidth=1;fontFamily=Helvetica;fontSize=11;fontColor=default;endArrow=none;endFill=0;startSize=6;endSize=6;fillColor=#000000;startArrow=oval;startFill=0;entryX=0.322;entryY=0.001;entryDx=0;entryDy=0;entryPerimeter=0;" parent="1" target="1472" edge="1">
                    <mxGeometry relative="1" as="geometry">
                        <mxPoint x="-2373.824980237154" y="-1308.6400000000003" as="targetPoint"/>
                        <mxPoint x="-2394" y="-1343.2400000000002" as="sourcePoint"/>
                    </mxGeometry>
                </mxCell>
                <mxCell id="1476" value="titolo" style="edgeLabel;html=1;align=center;verticalAlign=middle;resizable=0;points=[];fontSize=11;fontFamily=Helvetica;fontColor=default;" parent="1475" vertex="1" connectable="0">
                    <mxGeometry x="-0.2572" y="1" relative="1" as="geometry">
                        <mxPoint x="93" y="-9" as="offset"/>
                    </mxGeometry>
                </mxCell>
                <mxCell id="1477" style="edgeStyle=none;shape=connector;rounded=1;fillStyle=auto;html=1;labelBackgroundColor=default;strokeColor=default;strokeWidth=1;fontFamily=Helvetica;fontSize=11;fontColor=default;endArrow=none;endFill=0;startSize=6;endSize=6;fillColor=#000000;startArrow=oval;startFill=1;" parent="1" edge="1">
                    <mxGeometry relative="1" as="geometry">
                        <mxPoint x="-2364" y="-1327.2400000000002" as="targetPoint"/>
                        <mxPoint x="-2429" y="-1284.2400000000002" as="sourcePoint"/>
                        <Array as="points">
                            <mxPoint x="-2429" y="-1327.2400000000002"/>
                        </Array>
                    </mxGeometry>
                </mxCell>
                <mxCell id="1478" style="edgeStyle=none;shape=connector;rounded=1;fillStyle=auto;html=1;labelBackgroundColor=default;strokeColor=default;strokeWidth=1;fontFamily=Helvetica;fontSize=11;fontColor=default;endArrow=none;endFill=0;startSize=6;endSize=6;fillColor=#000000;startArrow=oval;startFill=0;" parent="1" target="1472" edge="1">
                    <mxGeometry relative="1" as="geometry">
                        <mxPoint x="-2306.997216876388" y="-1308.64" as="targetPoint"/>
                        <mxPoint x="-2301.54" y="-1259.41" as="sourcePoint"/>
                    </mxGeometry>
                </mxCell>
                <mxCell id="1479" value="premium" style="edgeLabel;html=1;align=center;verticalAlign=middle;resizable=0;points=[];fontSize=11;fontFamily=Helvetica;fontColor=default;" parent="1478" vertex="1" connectable="0">
                    <mxGeometry x="-0.2572" y="1" relative="1" as="geometry">
                        <mxPoint x="38" y="10" as="offset"/>
                    </mxGeometry>
                </mxCell>
                <mxCell id="1495" value="" style="edgeStyle=none;shape=connector;rounded=1;fillStyle=auto;html=1;labelBackgroundColor=default;strokeColor=default;strokeWidth=1;fontFamily=Helvetica;fontSize=11;fontColor=default;endArrow=none;startSize=6;endSize=6;fillColor=#000000;entryX=0.5;entryY=0;entryDx=0;entryDy=0;exitX=0.5;exitY=1;exitDx=0;exitDy=0;" parent="1" target="1497" edge="1">
                    <mxGeometry relative="1" as="geometry">
                        <mxPoint x="-2877.37" y="-1050.28" as="sourcePoint"/>
                        <mxPoint x="-2876.0199999999995" y="-990.28" as="targetPoint"/>
                    </mxGeometry>
                </mxCell>
                <mxCell id="1496" value="(0, N)" style="edgeLabel;html=1;align=center;verticalAlign=middle;resizable=0;points=[];fontSize=11;fontFamily=Helvetica;fontColor=default;" parent="1495" vertex="1" connectable="0">
                    <mxGeometry x="-0.3032" relative="1" as="geometry">
                        <mxPoint x="-20" y="16" as="offset"/>
                    </mxGeometry>
                </mxCell>
                <mxCell id="1530" value="(1, 1)" style="edgeStyle=none;html=1;endArrow=none;endFill=0;" parent="1" source="1497" edge="1">
                    <mxGeometry x="-0.4709" y="-18" relative="1" as="geometry">
                        <mxPoint as="offset"/>
                        <mxPoint x="-2877.587581470845" y="-930.4299999999998" as="targetPoint"/>
                    </mxGeometry>
                </mxCell>
                <mxCell id="1497" value="contenitore" style="rhombus;whiteSpace=wrap;html=1;" parent="1" vertex="1">
                    <mxGeometry x="-2927.37" y="-1010.52" width="100" height="40" as="geometry"/>
                </mxCell>
                <mxCell id="1501" value="(0, N)" style="edgeLabel;html=1;align=center;verticalAlign=middle;resizable=0;points=[];fontSize=11;fontFamily=Helvetica;fontColor=default;" parent="1" vertex="1" connectable="0">
                    <mxGeometry x="-2957.5186384418967" y="-1046.323623635675" as="geometry"/>
                </mxCell>
                <mxCell id="1502" value="" style="edgeStyle=none;shape=connector;rounded=1;fillStyle=auto;html=1;labelBackgroundColor=default;strokeColor=default;strokeWidth=1;fontFamily=Helvetica;fontSize=11;fontColor=default;endArrow=none;endFill=0;startSize=6;endSize=6;fillColor=#000000;exitX=0;exitY=0.5;exitDx=0;exitDy=0;" parent="1" source="1504" edge="1">
                    <mxGeometry relative="1" as="geometry">
                        <mxPoint x="-3147.16" y="-1056.4" as="targetPoint"/>
                    </mxGeometry>
                </mxCell>
                <mxCell id="1503" value="(1, 1)" style="edgeLabel;html=1;align=center;verticalAlign=middle;resizable=0;points=[];fontSize=11;fontFamily=Helvetica;fontColor=default;" parent="1502" vertex="1" connectable="0">
                    <mxGeometry x="0.4262" y="1" relative="1" as="geometry">
                        <mxPoint x="17" y="9" as="offset"/>
                    </mxGeometry>
                </mxCell>
                <mxCell id="1517" value="" style="edgeStyle=none;html=1;endArrow=none;endFill=0;exitX=1;exitY=0.5;exitDx=0;exitDy=0;entryX=0.006;entryY=0.848;entryDx=0;entryDy=0;entryPerimeter=0;" parent="1" source="1504" target="1413" edge="1">
                    <mxGeometry relative="1" as="geometry"/>
                </mxCell>
                <mxCell id="1504" value="&lt;font style=&quot;font-size: 11px;&quot;&gt;associazione&lt;sub style=&quot;&quot;&gt;(LS-C)&lt;/sub&gt;&lt;/font&gt;" style="rhombus;whiteSpace=wrap;html=1;" parent="1" vertex="1">
                    <mxGeometry x="-3104.25" y="-1076.5" width="140" height="40" as="geometry"/>
                </mxCell>
                <mxCell id="1505" value="LINK&lt;br&gt;SOCIAL" style="rounded=0;whiteSpace=wrap;html=1;" parent="1" vertex="1">
                    <mxGeometry x="-3227.4700000000003" y="-1074.7200000000003" width="80" height="40" as="geometry"/>
                </mxCell>
                <mxCell id="1506" value="" style="endArrow=oval;html=1;fillStyle=auto;strokeWidth=1;startSize=6;endSize=6;fillColor=#000000;startArrow=none;startFill=0;endFill=0;" parent="1" source="1505" edge="1">
                    <mxGeometry width="50" height="50" relative="1" as="geometry">
                        <mxPoint x="-3167.4700000000003" y="-1054.7200000000003" as="sourcePoint"/>
                        <mxPoint x="-3186.91" y="-1014.48" as="targetPoint"/>
                    </mxGeometry>
                </mxCell>
                <mxCell id="1507" value="link" style="edgeLabel;html=1;align=center;verticalAlign=middle;resizable=0;points=[];" parent="1506" vertex="1" connectable="0">
                    <mxGeometry x="0.4791" y="1" relative="1" as="geometry">
                        <mxPoint x="-1" y="15" as="offset"/>
                    </mxGeometry>
                </mxCell>
                <mxCell id="1516" value="" style="endArrow=oval;html=1;fillStyle=auto;strokeWidth=1;startSize=6;endSize=6;fillColor=#000000;startArrow=none;startFill=0;endFill=1;jumpStyle=none;" parent="1" edge="1">
                    <mxGeometry width="50" height="50" relative="1" as="geometry">
                        <mxPoint x="-3137.46" y="-1043.21" as="sourcePoint"/>
                        <mxPoint x="-3197.46" y="-1083.21" as="targetPoint"/>
                        <Array as="points">
                            <mxPoint x="-3137.46" y="-1083.21"/>
                        </Array>
                    </mxGeometry>
                </mxCell>
                <mxCell id="1518" value="" style="endArrow=oval;html=1;fillStyle=auto;strokeWidth=1;startSize=6;endSize=6;fillColor=#000000;startArrow=none;startFill=0;endFill=0;exitX=0.5;exitY=0;exitDx=0;exitDy=0;" parent="1" source="1505" edge="1">
                    <mxGeometry width="50" height="50" relative="1" as="geometry">
                        <mxPoint x="-3177.6052265043945" y="-1097.5500000000002" as="sourcePoint"/>
                        <mxPoint x="-3187.7700000000004" y="-1096.0900000000001" as="targetPoint"/>
                    </mxGeometry>
                </mxCell>
                <mxCell id="1519" value="social" style="edgeLabel;html=1;align=center;verticalAlign=middle;resizable=0;points=[];" parent="1518" vertex="1" connectable="0">
                    <mxGeometry x="0.4791" y="1" relative="1" as="geometry">
                        <mxPoint x="1" y="-18" as="offset"/>
                    </mxGeometry>
                </mxCell>
                <mxCell id="1521" value="" style="endArrow=oval;html=1;fillStyle=auto;strokeWidth=1;startSize=6;endSize=6;fillColor=#000000;startArrow=none;startFill=0;endFill=0;" parent="1" source="1413" edge="1">
                    <mxGeometry width="50" height="50" relative="1" as="geometry">
                        <mxPoint x="-2568.015" y="-930" as="sourcePoint"/>
                        <mxPoint x="-2803" y="-1038" as="targetPoint"/>
                    </mxGeometry>
                </mxCell>
                <mxCell id="1522" value="immagine&lt;br&gt;profilo" style="edgeLabel;html=1;align=center;verticalAlign=middle;resizable=0;points=[];" parent="1521" vertex="1" connectable="0">
                    <mxGeometry x="0.4791" y="1" relative="1" as="geometry">
                        <mxPoint x="41" y="8" as="offset"/>
                    </mxGeometry>
                </mxCell>
                <mxCell id="1545" style="edgeStyle=none;html=1;exitX=0.995;exitY=0.286;exitDx=0;exitDy=0;endArrow=none;endFill=0;entryX=0;entryY=0.5;entryDx=0;entryDy=0;exitPerimeter=0;" parent="1" target="1534" edge="1" source="1948">
                    <mxGeometry relative="1" as="geometry">
                        <mxPoint x="-2737.4700000000003" y="-950" as="targetPoint"/>
                        <Array as="points">
                            <mxPoint x="-2770" y="-920"/>
                        </Array>
                        <mxPoint x="-2817.66" y="-920.4299999999998" as="sourcePoint"/>
                    </mxGeometry>
                </mxCell>
                <mxCell id="1525" value="" style="endArrow=oval;html=1;fillStyle=auto;strokeWidth=1;startSize=6;endSize=6;fillColor=#000000;startArrow=none;startFill=0;endFill=0;exitX=0.173;exitY=0.001;exitDx=0;exitDy=0;exitPerimeter=0;" parent="1" source="1948" edge="1">
                    <mxGeometry width="50" height="50" relative="1" as="geometry">
                        <mxPoint x="-2886.3720835405275" y="-930.4299999999998" as="sourcePoint"/>
                        <mxPoint x="-2937.4700000000003" y="-960" as="targetPoint"/>
                    </mxGeometry>
                </mxCell>
                <mxCell id="1526" value="titolo" style="edgeLabel;html=1;align=center;verticalAlign=middle;resizable=0;points=[];" parent="1525" vertex="1" connectable="0">
                    <mxGeometry x="0.4791" y="1" relative="1" as="geometry">
                        <mxPoint x="-21" y="-14" as="offset"/>
                    </mxGeometry>
                </mxCell>
                <mxCell id="1531" value="" style="edgeStyle=none;shape=connector;rounded=1;fillStyle=auto;html=1;labelBackgroundColor=default;strokeColor=default;strokeWidth=1;fontFamily=Helvetica;fontSize=11;fontColor=default;endArrow=none;endFill=0;startSize=6;endSize=6;fillColor=#000000;exitX=1;exitY=0.5;exitDx=0;exitDy=0;entryX=0;entryY=0.5;entryDx=0;entryDy=0;" parent="1" source="1534" target="1535" edge="1">
                    <mxGeometry relative="1" as="geometry"/>
                </mxCell>
                <mxCell id="1532" value="(0, N)" style="edgeLabel;html=1;align=center;verticalAlign=middle;resizable=0;points=[];fontSize=11;fontFamily=Helvetica;fontColor=default;" parent="1531" vertex="1" connectable="0">
                    <mxGeometry x="0.4262" y="1" relative="1" as="geometry">
                        <mxPoint x="-59" y="-9" as="offset"/>
                    </mxGeometry>
                </mxCell>
                <mxCell id="1533" value="(1, 1)" style="edgeLabel;html=1;align=center;verticalAlign=middle;resizable=0;points=[];" parent="1" vertex="1" connectable="0">
                    <mxGeometry x="-2699.176390391375" y="-930.4808247087101" as="geometry"/>
                </mxCell>
                <mxCell id="1534" value="appartenenza" style="rhombus;whiteSpace=wrap;html=1;" parent="1" vertex="1">
                    <mxGeometry x="-2679.18" y="-940" width="129" height="40" as="geometry"/>
                </mxCell>
                <mxCell id="1535" value="CATEGORIA" style="rounded=0;whiteSpace=wrap;html=1;" parent="1" vertex="1">
                    <mxGeometry x="-2439.0099999999998" y="-940" width="80" height="40" as="geometry"/>
                </mxCell>
                <mxCell id="1536" value="" style="endArrow=oval;html=1;fillStyle=auto;strokeWidth=1;startSize=6;endSize=6;fillColor=#000000;startArrow=none;startFill=0;endFill=1;" parent="1" source="1535" edge="1">
                    <mxGeometry width="50" height="50" relative="1" as="geometry">
                        <mxPoint x="-2686.5099999999998" y="-959.1200000000001" as="sourcePoint"/>
                        <mxPoint x="-2332.18" y="-919.48" as="targetPoint"/>
                    </mxGeometry>
                </mxCell>
                <mxCell id="1537" value="nome" style="edgeLabel;html=1;align=center;verticalAlign=middle;resizable=0;points=[];" parent="1536" vertex="1" connectable="0">
                    <mxGeometry x="0.4791" y="1" relative="1" as="geometry">
                        <mxPoint x="29" y="1" as="offset"/>
                    </mxGeometry>
                </mxCell>
                <mxCell id="1591" style="edgeStyle=none;html=1;exitX=0.5;exitY=1;exitDx=0;exitDy=0;entryX=0;entryY=0.75;entryDx=0;entryDy=0;endArrow=none;endFill=0;" parent="1" source="1593" edge="1">
                    <mxGeometry relative="1" as="geometry">
                        <mxPoint x="-2937.66" y="-900.4299999999998" as="targetPoint"/>
                        <Array as="points">
                            <mxPoint x="-3399.4700000000003" y="-900"/>
                        </Array>
                    </mxGeometry>
                </mxCell>
                <mxCell id="1592" value="(0, N)" style="edgeLabel;html=1;align=center;verticalAlign=middle;resizable=0;points=[];fontSize=11;fontFamily=Helvetica;fontColor=default;" parent="1591" vertex="1" connectable="0">
                    <mxGeometry x="-0.1866" y="4" relative="1" as="geometry">
                        <mxPoint x="-66" y="-155" as="offset"/>
                    </mxGeometry>
                </mxCell>
                <mxCell id="1595" style="edgeStyle=none;html=1;exitX=0.5;exitY=0;exitDx=0;exitDy=0;endArrow=none;endFill=0;entryX=0;entryY=0.5;entryDx=0;entryDy=0;jumpStyle=arc;" parent="1" source="1593" target="1891" edge="1">
                    <mxGeometry relative="1" as="geometry">
                        <Array as="points">
                            <mxPoint x="-3399.4700000000003" y="-1570"/>
                        </Array>
                        <mxPoint x="-2918.08" y="-1460" as="targetPoint"/>
                    </mxGeometry>
                </mxCell>
                <mxCell id="1593" value="visita" style="rhombus;whiteSpace=wrap;html=1;" parent="1" vertex="1">
                    <mxGeometry x="-3439.2599999999993" y="-1114" width="80" height="40" as="geometry"/>
                </mxCell>
                <mxCell id="1594" value="(0, N)" style="edgeLabel;html=1;align=center;verticalAlign=middle;resizable=0;points=[];fontSize=11;fontFamily=Helvetica;fontColor=default;" parent="1" vertex="1" connectable="0">
                    <mxGeometry x="-3379.259256540776" y="-1123.9932698239415" as="geometry"/>
                </mxCell>
                <mxCell id="1630" style="edgeStyle=none;html=1;endArrow=none;endFill=0;jumpStyle=arc;entryX=0.298;entryY=0.986;entryDx=0;entryDy=0;entryPerimeter=0;" parent="1" source="1629" target="1897" edge="1">
                    <mxGeometry relative="1" as="geometry">
                        <mxPoint x="-3267.4700000000003" y="-1080" as="sourcePoint"/>
                        <Array as="points">
                            <mxPoint x="-3327.4700000000003" y="-1330"/>
                            <mxPoint x="-2817.4700000000003" y="-1330"/>
                        </Array>
                        <mxPoint x="-2817.4700000000003" y="-1390" as="targetPoint"/>
                    </mxGeometry>
                </mxCell>
                <mxCell id="1631" style="edgeStyle=none;html=1;exitX=0.5;exitY=1;exitDx=0;exitDy=0;endArrow=none;endFill=0;" parent="1" source="1629" edge="1">
                    <mxGeometry relative="1" as="geometry">
                        <mxPoint x="-3329.1227660785426" y="-638.0600000000001" as="targetPoint"/>
                        <Array as="points"/>
                    </mxGeometry>
                </mxCell>
                <mxCell id="1629" value="partecipazione" style="rhombus;whiteSpace=wrap;html=1;" parent="1" vertex="1">
                    <mxGeometry x="-3390" y="-830" width="120" height="50" as="geometry"/>
                </mxCell>
                <mxCell id="1632" value="(0, N)" style="edgeLabel;html=1;align=center;verticalAlign=middle;resizable=0;points=[];fontSize=11;fontFamily=Helvetica;fontColor=default;" parent="1" vertex="1" connectable="0">
                    <mxGeometry x="-3177.469256540776" y="-830.0032698239415" as="geometry">
                        <mxPoint x="-134" y="-12" as="offset"/>
                    </mxGeometry>
                </mxCell>
                <mxCell id="1633" value="(1, 1)" style="edgeLabel;html=1;align=center;verticalAlign=middle;resizable=0;points=[];fontSize=11;fontFamily=Helvetica;fontColor=default;" parent="1" vertex="1" connectable="0">
                    <mxGeometry x="-3177.4699999999993" y="-765.6294117647057" as="geometry">
                        <mxPoint x="-132" y="-11" as="offset"/>
                    </mxGeometry>
                </mxCell>
                <mxCell id="1647" value="(0, N)" style="edgeLabel;html=1;align=center;verticalAlign=middle;resizable=0;points=[];" parent="1" connectable="0" vertex="1">
                    <mxGeometry x="-3127.770522352619" y="-628.058892313264" as="geometry"/>
                </mxCell>
                <mxCell id="1648" value="&lt;span style=&quot;color: rgb(0, 0, 0); font-family: Helvetica; font-size: 11px; font-style: normal; font-variant-ligatures: normal; font-variant-caps: normal; font-weight: 400; letter-spacing: normal; orphans: 2; text-align: center; text-indent: 0px; text-transform: none; widows: 2; word-spacing: 0px; -webkit-text-stroke-width: 0px; background-color: rgb(255, 255, 255); text-decoration-thickness: initial; text-decoration-style: initial; text-decoration-color: initial; float: none; display: inline !important;&quot;&gt;(1, 1)&lt;/span&gt;" style="edgeLabel;html=1;align=center;verticalAlign=middle;resizable=0;points=[];fontSize=11;fontFamily=Helvetica;fontColor=default;" parent="1" connectable="0" vertex="1">
                    <mxGeometry x="-3227.4714869339014" y="-628.0562627005637" as="geometry">
                        <mxPoint x="-5" y="-1" as="offset"/>
                    </mxGeometry>
                </mxCell>
                <mxCell id="1650" style="edgeStyle=none;html=1;exitX=0;exitY=0.5;exitDx=0;exitDy=0;endArrow=none;endFill=0;" parent="1" source="1649" edge="1">
                    <mxGeometry relative="1" as="geometry">
                        <mxPoint x="-3269.26" y="-617.8891922845086" as="targetPoint"/>
                    </mxGeometry>
                </mxCell>
                <mxCell id="1649" value="invio" style="rhombus;whiteSpace=wrap;html=1;" parent="1" vertex="1">
                    <mxGeometry x="-3222.4700000000003" y="-638.0599999999998" width="80" height="40" as="geometry"/>
                </mxCell>
                <mxCell id="1666" value="" style="endArrow=oval;html=1;fillStyle=auto;strokeWidth=1;startSize=6;endSize=6;fillColor=#000000;startArrow=none;startFill=0;endFill=0;" parent="1" source="1472" edge="1">
                    <mxGeometry width="50" height="50" relative="1" as="geometry">
                        <mxPoint x="-2838.6769403907992" y="-1028.84" as="sourcePoint"/>
                        <mxPoint x="-2418.8999999999996" y="-1258.4100000000003" as="targetPoint"/>
                    </mxGeometry>
                </mxCell>
                <mxCell id="1667" value="LIS" style="edgeLabel;html=1;align=center;verticalAlign=middle;resizable=0;points=[];" parent="1666" vertex="1" connectable="0">
                    <mxGeometry x="0.4791" y="1" relative="1" as="geometry">
                        <mxPoint x="-25" y="3" as="offset"/>
                    </mxGeometry>
                </mxCell>
                <mxCell id="1686" style="edgeStyle=none;html=1;exitX=0.5;exitY=0;exitDx=0;exitDy=0;entryX=0;entryY=0.5;entryDx=0;entryDy=0;endArrow=none;endFill=0;jumpStyle=arc;" parent="1" source="1668" target="1670" edge="1">
                    <mxGeometry relative="1" as="geometry">
                        <mxPoint x="-3128.7699999999995" y="-1460.14" as="targetPoint"/>
                        <Array as="points">
                            <mxPoint x="-3196.88" y="-1459.24"/>
                        </Array>
                    </mxGeometry>
                </mxCell>
                <mxCell id="1668" value="MESSAGGIO" style="whiteSpace=wrap;html=1;" parent="1" vertex="1">
                    <mxGeometry x="-3237.3" y="-1440.1399999999999" width="80" height="40" as="geometry"/>
                </mxCell>
                <mxCell id="1685" style="edgeStyle=none;html=1;exitX=0;exitY=0.5;exitDx=0;exitDy=0;entryX=0.5;entryY=1;entryDx=0;entryDy=0;endArrow=none;endFill=0;jumpStyle=arc;" parent="1" source="1669" target="1668" edge="1">
                    <mxGeometry relative="1" as="geometry">
                        <Array as="points">
                            <mxPoint x="-3196.88" y="-1381.24"/>
                        </Array>
                    </mxGeometry>
                </mxCell>
                <mxCell id="1669" value="&lt;font style=&quot;font-size: 10px;&quot;&gt;mittente&lt;sub style=&quot;&quot;&gt;(M-R)&lt;/sub&gt;&lt;/font&gt;" style="rhombus;whiteSpace=wrap;html=1;" parent="1" vertex="1">
                    <mxGeometry x="-3116.8900000000003" y="-1401.24" width="90.01" height="40" as="geometry"/>
                </mxCell>
                <mxCell id="1687" style="edgeStyle=none;html=1;exitX=1;exitY=0.5;exitDx=0;exitDy=0;endArrow=none;endFill=0;jumpStyle=arc;entryX=0.008;entryY=0.327;entryDx=0;entryDy=0;entryPerimeter=0;" parent="1" source="1670" target="1897" edge="1">
                    <mxGeometry relative="1" as="geometry">
                        <Array as="points">
                            <mxPoint x="-2977.4700000000003" y="-1460"/>
                            <mxPoint x="-2957.4700000000003" y="-1460"/>
                            <mxPoint x="-2957.4700000000003" y="-1420"/>
                        </Array>
                        <mxPoint x="-2937.6400000000003" y="-1483.09" as="targetPoint"/>
                    </mxGeometry>
                </mxCell>
                <mxCell id="1670" value="&lt;font style=&quot;font-size: 10px;&quot;&gt;destinatario&lt;sub style=&quot;&quot;&gt;(M-R)&lt;/sub&gt;&lt;/font&gt;" style="rhombus;whiteSpace=wrap;html=1;" parent="1" vertex="1">
                    <mxGeometry x="-3126.2" y="-1479.73" width="109.32" height="40" as="geometry"/>
                </mxCell>
                <mxCell id="1676" value="(1,1)" style="edgeLabel;html=1;align=center;verticalAlign=middle;resizable=0;points=[];fontSize=11;fontFamily=Helvetica;fontColor=default;" parent="1" vertex="1" connectable="0">
                    <mxGeometry x="-3147.47355666579" y="-1474.3175837496715" as="geometry">
                        <mxPoint x="6" y="3" as="offset"/>
                    </mxGeometry>
                </mxCell>
                <mxCell id="1677" style="edgeStyle=none;shape=connector;rounded=1;fillStyle=auto;html=1;labelBackgroundColor=default;strokeColor=default;strokeWidth=1;fontFamily=Helvetica;fontSize=11;fontColor=default;endArrow=none;endFill=0;startSize=6;endSize=6;fillColor=#000000;startArrow=oval;startFill=0;" parent="1" target="1668" edge="1">
                    <mxGeometry relative="1" as="geometry">
                        <mxPoint x="-3019.9477777777774" y="-1520.2" as="targetPoint"/>
                        <mxPoint x="-3239.46" y="-1380.14" as="sourcePoint"/>
                    </mxGeometry>
                </mxCell>
                <mxCell id="1678" value="timestamp" style="edgeLabel;html=1;align=center;verticalAlign=middle;resizable=0;points=[];fontSize=11;fontFamily=Helvetica;fontColor=default;" parent="1677" vertex="1" connectable="0">
                    <mxGeometry x="-0.2572" y="1" relative="1" as="geometry">
                        <mxPoint x="-6" y="27" as="offset"/>
                    </mxGeometry>
                </mxCell>
                <mxCell id="1680" value="" style="endArrow=oval;html=1;fillStyle=auto;strokeWidth=1;startSize=6;endSize=6;fillColor=#000000;startArrow=none;startFill=0;endFill=1;jumpStyle=none;" parent="1" edge="1">
                    <mxGeometry width="50" height="50" relative="1" as="geometry">
                        <mxPoint x="-3189.46" y="-1390.14" as="sourcePoint"/>
                        <mxPoint x="-3179.46" y="-1390.14" as="targetPoint"/>
                        <Array as="points">
                            <mxPoint x="-3249.46" y="-1390.14"/>
                            <mxPoint x="-3189.46" y="-1390.14"/>
                        </Array>
                    </mxGeometry>
                </mxCell>
                <mxCell id="1681" style="edgeStyle=none;shape=connector;rounded=1;fillStyle=auto;html=1;labelBackgroundColor=default;strokeColor=default;strokeWidth=1;fontFamily=Helvetica;fontSize=11;fontColor=default;endArrow=none;endFill=0;startSize=6;endSize=6;fillColor=#000000;startArrow=oval;startFill=0;" parent="1" target="1668" edge="1">
                    <mxGeometry relative="1" as="geometry">
                        <mxPoint x="-3014.218355336764" y="-1536.7741776683822" as="targetPoint"/>
                        <mxPoint x="-3239.46" y="-1460.14" as="sourcePoint"/>
                    </mxGeometry>
                </mxCell>
                <mxCell id="1682" value="testo" style="edgeLabel;html=1;align=center;verticalAlign=middle;resizable=0;points=[];fontSize=11;fontFamily=Helvetica;fontColor=default;" parent="1681" vertex="1" connectable="0">
                    <mxGeometry x="-0.2572" y="1" relative="1" as="geometry">
                        <mxPoint x="-28" y="-7" as="offset"/>
                    </mxGeometry>
                </mxCell>
                <mxCell id="1684" value="(0,N)" style="edgeLabel;html=1;align=center;verticalAlign=middle;resizable=0;points=[];fontSize=11;fontFamily=Helvetica;fontColor=default;" parent="1" vertex="1" connectable="0">
                    <mxGeometry x="-3009.5335566657905" y="-1474.3175837496715" as="geometry">
                        <mxPoint x="6" y="3" as="offset"/>
                    </mxGeometry>
                </mxCell>
                <mxCell id="1688" value="(0,N)" style="edgeLabel;html=1;align=center;verticalAlign=middle;resizable=0;points=[];fontSize=11;fontFamily=Helvetica;fontColor=default;" parent="1" vertex="1" connectable="0">
                    <mxGeometry x="-3020.47355666579" y="-1375.9975837496715" as="geometry">
                        <mxPoint x="6" y="3" as="offset"/>
                    </mxGeometry>
                </mxCell>
                <mxCell id="1689" value="(1,1)" style="edgeLabel;html=1;align=center;verticalAlign=middle;resizable=0;points=[];fontSize=11;fontFamily=Helvetica;fontColor=default;" parent="1" vertex="1" connectable="0">
                    <mxGeometry x="-3137.473556665791" y="-1375.9975837496715" as="geometry">
                        <mxPoint x="6" y="3" as="offset"/>
                    </mxGeometry>
                </mxCell>
                <mxCell id="1691" style="edgeStyle=none;html=1;exitX=0.5;exitY=0;exitDx=0;exitDy=0;endArrow=none;endFill=0;jumpStyle=arc;entryX=0.397;entryY=0.998;entryDx=0;entryDy=0;entryPerimeter=0;" parent="1" source="1690" target="1897" edge="1">
                    <mxGeometry relative="1" as="geometry">
                        <Array as="points">
                            <mxPoint x="-3255.4700000000003" y="-1310"/>
                            <mxPoint x="-3137.4700000000003" y="-1310"/>
                            <mxPoint x="-2947.4700000000003" y="-1310"/>
                            <mxPoint x="-2917.4700000000003" y="-1310"/>
                            <mxPoint x="-2807.4700000000003" y="-1310"/>
                        </Array>
                        <mxPoint x="-2937.4700000000003" y="-1290" as="targetPoint"/>
                    </mxGeometry>
                </mxCell>
                <mxCell id="1694" value="(0, N)" style="edgeLabel;html=1;align=center;verticalAlign=middle;resizable=0;points=[];" parent="1691" vertex="1" connectable="0">
                    <mxGeometry x="-0.8392" y="-2" relative="1" as="geometry">
                        <mxPoint x="16" y="44" as="offset"/>
                    </mxGeometry>
                </mxCell>
                <mxCell id="1692" style="edgeStyle=none;jumpStyle=arc;html=1;exitX=0.5;exitY=1;exitDx=0;exitDy=0;entryX=0;entryY=0.25;entryDx=0;entryDy=0;endArrow=none;endFill=0;" parent="1" source="1690" edge="1">
                    <mxGeometry relative="1" as="geometry">
                        <Array as="points">
                            <mxPoint x="-3255.4700000000003" y="-920"/>
                        </Array>
                        <mxPoint x="-2937.66" y="-920.4299999999998" as="targetPoint"/>
                    </mxGeometry>
                </mxCell>
                <mxCell id="1693" value="(0, N)" style="edgeLabel;html=1;align=center;verticalAlign=middle;resizable=0;points=[];" parent="1692" vertex="1" connectable="0">
                    <mxGeometry x="-0.8996" relative="1" as="geometry">
                        <mxPoint x="18" y="-11" as="offset"/>
                    </mxGeometry>
                </mxCell>
                <mxCell id="1690" value="voto" style="rhombus;whiteSpace=wrap;html=1;" parent="1" vertex="1">
                    <mxGeometry x="-3295.4700000000003" y="-1208.77" width="80" height="40" as="geometry"/>
                </mxCell>
                <mxCell id="1695" value="" style="endArrow=oval;html=1;fillStyle=auto;strokeWidth=1;startSize=6;endSize=6;fillColor=#000000;startArrow=none;startFill=0;endFill=0;" parent="1" source="1690" edge="1">
                    <mxGeometry width="50" height="50" relative="1" as="geometry">
                        <mxPoint x="-3125.4700000000003" y="-980.6066122312948" as="sourcePoint"/>
                        <mxPoint x="-3195.46" y="-1188.77" as="targetPoint"/>
                    </mxGeometry>
                </mxCell>
                <mxCell id="1696" value="likert" style="edgeLabel;html=1;align=center;verticalAlign=middle;resizable=0;points=[];" parent="1695" vertex="1" connectable="0">
                    <mxGeometry x="0.4791" y="1" relative="1" as="geometry">
                        <mxPoint x="15" y="13" as="offset"/>
                    </mxGeometry>
                </mxCell>
                <mxCell id="1714" value="" style="endArrow=none;html=1;strokeColor=#000000;strokeWidth=1;fontColor=#FF0000;" parent="1" edge="1">
                    <mxGeometry width="50" height="50" relative="1" as="geometry">
                        <mxPoint x="-3353.99" y="-647.83" as="sourcePoint"/>
                        <mxPoint x="-3259.8500000000004" y="-608.14" as="targetPoint"/>
                        <Array as="points">
                            <mxPoint x="-3259.8500000000004" y="-648.14"/>
                        </Array>
                    </mxGeometry>
                </mxCell>
                <mxCell id="1715" value="" style="shape=waypoint;fillStyle=solid;size=6;pointerEvents=1;points=[];fillColor=none;resizable=0;rotatable=0;perimeter=centerPerimeter;snapToPoint=1;strokeColor=#000000;fontColor=#FF0000;" parent="1" vertex="1">
                    <mxGeometry x="-3363.8500000000004" y="-658.0600000000001" width="20" height="20" as="geometry"/>
                </mxCell>
                <mxCell id="1749" value="&lt;font style=&quot;font-size: 10px;&quot;&gt;(0,1)&lt;/font&gt;" style="text;html=1;align=center;verticalAlign=middle;resizable=0;points=[];autosize=1;strokeColor=none;fillColor=none;fontSize=11;" parent="1" vertex="1">
                    <mxGeometry x="-2957.52" y="-1123.99" width="39" height="25" as="geometry"/>
                </mxCell>
                <mxCell id="1750" value="&lt;font style=&quot;font-size: 10px;&quot;&gt;(0,1)&lt;/font&gt;" style="text;html=1;align=center;verticalAlign=middle;resizable=0;points=[];autosize=1;strokeColor=none;fillColor=none;fontSize=11;" parent="1" vertex="1">
                    <mxGeometry x="-2827.37" y="-1065" width="39" height="25" as="geometry"/>
                </mxCell>
                <mxCell id="1752" value="(0,1)" style="text;html=1;align=center;verticalAlign=middle;resizable=0;points=[];autosize=1;strokeColor=none;fillColor=none;fontSize=10;" parent="1" vertex="1">
                    <mxGeometry x="-2871.6400000000003" y="-1050.28" width="39" height="24" as="geometry"/>
                </mxCell>
                <mxCell id="1770" value="INTERAZIONE" style="rounded=0;whiteSpace=wrap;html=1;" parent="1" vertex="1">
                    <mxGeometry x="-3389.26" y="-638.68" width="120" height="40" as="geometry"/>
                </mxCell>
                <mxCell id="1771" value="codice" style="edgeStyle=none;jumpStyle=arc;html=1;startArrow=none;startFill=0;endArrow=oval;endFill=1;" parent="1" source="1772" edge="1">
                    <mxGeometry x="1" y="30" relative="1" as="geometry">
                        <mxPoint x="-3326.42" y="-408.71999999999986" as="targetPoint"/>
                        <mxPoint x="-3289.26" y="-338.45999999999987" as="sourcePoint"/>
                        <mxPoint as="offset"/>
                    </mxGeometry>
                </mxCell>
                <mxCell id="1772" value="EMOJI" style="whiteSpace=wrap;html=1;rounded=0;" parent="1" vertex="1">
                    <mxGeometry x="-3366.87" y="-478.7199999999999" width="80" height="40" as="geometry"/>
                </mxCell>
                <mxCell id="1778" value="(0, N)" style="edgeStyle=none;jumpStyle=arc;html=1;startArrow=none;startFill=0;endArrow=none;endFill=0;" parent="1" source="1781" edge="1">
                    <mxGeometry x="-0.4888" y="20" relative="1" as="geometry">
                        <mxPoint as="offset"/>
                        <mxPoint x="-3329.42" y="-478.7199999999999" as="targetPoint"/>
                        <Array as="points"/>
                    </mxGeometry>
                </mxCell>
                <mxCell id="1779" style="edgeStyle=none;html=1;exitX=0.5;exitY=0;exitDx=0;exitDy=0;endArrow=none;endFill=0;" parent="1" source="1781" edge="1">
                    <mxGeometry relative="1" as="geometry">
                        <mxPoint x="-3329.42" y="-598.7199999999999" as="targetPoint"/>
                    </mxGeometry>
                </mxCell>
                <mxCell id="1780" value="(0, N)" style="edgeLabel;html=1;align=center;verticalAlign=middle;resizable=0;points=[];" parent="1779" vertex="1" connectable="0">
                    <mxGeometry x="-0.3714" y="3" relative="1" as="geometry">
                        <mxPoint x="23" y="2" as="offset"/>
                    </mxGeometry>
                </mxCell>
                <mxCell id="1781" value="&lt;font style=&quot;font-size: 11px;&quot;&gt;presenza&lt;/font&gt;" style="rhombus;whiteSpace=wrap;html=1;rounded=0;" parent="1" vertex="1">
                    <mxGeometry x="-3379.26" y="-559.07" width="100" height="40" as="geometry"/>
                </mxCell>
                <mxCell id="1782" value="" style="endArrow=oval;html=1;fillStyle=auto;strokeWidth=1;startSize=6;endSize=6;fillColor=#000000;startArrow=none;startFill=0;endFill=0;" parent="1" edge="1">
                    <mxGeometry width="50" height="50" relative="1" as="geometry">
                        <mxPoint x="-3369.2619688350233" y="-638.68" as="sourcePoint"/>
                        <mxPoint x="-3399.42" y="-668.7199999999999" as="targetPoint"/>
                    </mxGeometry>
                </mxCell>
                <mxCell id="1783" value="messaggio" style="edgeLabel;html=1;align=center;verticalAlign=middle;resizable=0;points=[];" parent="1782" connectable="0" vertex="1">
                    <mxGeometry x="0.4791" y="1" relative="1" as="geometry">
                        <mxPoint x="-45" y="-6" as="offset"/>
                    </mxGeometry>
                </mxCell>
                <mxCell id="1790" value="" style="endArrow=oval;html=1;fillStyle=auto;strokeWidth=1;startSize=6;endSize=6;fillColor=#000000;startArrow=none;startFill=0;endFill=0;strokeColor=#000000;exitX=0.828;exitY=1.013;exitDx=0;exitDy=0;exitPerimeter=0;" parent="1" source="1770" edge="1">
                    <mxGeometry width="50" height="50" relative="1" as="geometry">
                        <mxPoint x="-3237.630476941269" y="-547.9799999999999" as="sourcePoint"/>
                        <mxPoint x="-3269.42" y="-578.7199999999999" as="targetPoint"/>
                    </mxGeometry>
                </mxCell>
                <mxCell id="1791" value="tipologia" style="edgeLabel;html=1;align=center;verticalAlign=middle;resizable=0;points=[];" parent="1790" vertex="1" connectable="0">
                    <mxGeometry x="0.4791" y="1" relative="1" as="geometry">
                        <mxPoint x="30" y="15" as="offset"/>
                    </mxGeometry>
                </mxCell>
                <mxCell id="1792" value="&lt;font style=&quot;font-size: 10px;&quot;&gt;(0,1)&lt;/font&gt;" style="text;html=1;align=center;verticalAlign=middle;resizable=0;points=[];autosize=1;strokeColor=none;fillColor=none;fontColor=#000000;" parent="1" vertex="1">
                    <mxGeometry x="-3419.26" y="-668.64" width="40" height="30" as="geometry"/>
                </mxCell>
                <mxCell id="1810" value="" style="endArrow=oval;html=1;fillStyle=auto;strokeWidth=1;startSize=6;endSize=6;fillColor=#000000;startArrow=none;startFill=0;endFill=0;fontStyle=0" parent="1" source="1838" edge="1">
                    <mxGeometry width="50" height="50" relative="1" as="geometry">
                        <mxPoint x="-3074.34" y="-963.8733333333337" as="sourcePoint"/>
                        <mxPoint x="-3097.4700000000003" y="-660.4999999999999" as="targetPoint"/>
                    </mxGeometry>
                </mxCell>
                <mxCell id="1811" value="data&lt;br&gt;inizio" style="edgeLabel;html=1;align=center;verticalAlign=middle;resizable=0;points=[];" parent="1810" vertex="1" connectable="0">
                    <mxGeometry x="0.4791" y="1" relative="1" as="geometry">
                        <mxPoint x="-12" y="-26" as="offset"/>
                    </mxGeometry>
                </mxCell>
                <mxCell id="1812" value="" style="edgeStyle=none;html=1;endArrow=none;endFill=0;fontStyle=0;entryX=1;entryY=0.5;entryDx=0;entryDy=0;" parent="1" source="1839" target="1842" edge="1">
                    <mxGeometry relative="1" as="geometry">
                        <mxPoint x="-2593.4700000000003" y="-540.68" as="targetPoint"/>
                        <Array as="points">
                            <mxPoint x="-2592.4700000000003" y="-538.68"/>
                        </Array>
                    </mxGeometry>
                </mxCell>
                <mxCell id="1813" value="" style="endArrow=oval;html=1;fillStyle=auto;strokeWidth=1;startSize=6;endSize=6;fillColor=#000000;startArrow=none;startFill=0;endFill=0;exitX=0.25;exitY=1;exitDx=0;exitDy=0;fontStyle=0" parent="1" source="1840" edge="1">
                    <mxGeometry width="50" height="50" relative="1" as="geometry">
                        <mxPoint x="-2736.6502458605123" y="-592.0699999999997" as="sourcePoint"/>
                        <mxPoint x="-2866.1900000000005" y="-582.8100000000001" as="targetPoint"/>
                    </mxGeometry>
                </mxCell>
                <mxCell id="1814" value="minutaggio" style="edgeLabel;html=1;align=center;verticalAlign=middle;resizable=0;points=[];" parent="1813" vertex="1" connectable="0">
                    <mxGeometry x="0.4791" y="1" relative="1" as="geometry">
                        <mxPoint y="16" as="offset"/>
                    </mxGeometry>
                </mxCell>
                <mxCell id="1815" value="" style="endArrow=oval;html=1;fillStyle=auto;strokeWidth=1;startSize=6;endSize=6;fillColor=#000000;startArrow=none;startFill=0;endFill=0;fontStyle=0" parent="1" source="1840" edge="1">
                    <mxGeometry width="50" height="50" relative="1" as="geometry">
                        <mxPoint x="-2726.6502458605123" y="-582.0699999999997" as="sourcePoint"/>
                        <mxPoint x="-2786.1900000000005" y="-662.8100000000001" as="targetPoint"/>
                    </mxGeometry>
                </mxCell>
                <mxCell id="1816" value="durata" style="edgeLabel;html=1;align=center;verticalAlign=middle;resizable=0;points=[];" parent="1815" vertex="1" connectable="0">
                    <mxGeometry x="0.4791" y="1" relative="1" as="geometry">
                        <mxPoint x="25" y="-9" as="offset"/>
                    </mxGeometry>
                </mxCell>
                <mxCell id="1817" style="edgeStyle=none;shape=connector;rounded=1;fillStyle=auto;html=1;labelBackgroundColor=default;strokeColor=default;strokeWidth=1;fontFamily=Helvetica;fontSize=11;fontColor=default;endArrow=none;endFill=0;startSize=6;endSize=6;fillColor=#000000;startArrow=oval;startFill=0;fontStyle=0" parent="1" target="1838" edge="1">
                    <mxGeometry relative="1" as="geometry">
                        <mxPoint x="-3028.3658728147957" y="-600.8999999999997" as="targetPoint"/>
                        <mxPoint x="-2988.4700000000003" y="-656" as="sourcePoint"/>
                    </mxGeometry>
                </mxCell>
                <mxCell id="1818" value="premium" style="edgeLabel;html=1;align=center;verticalAlign=middle;resizable=0;points=[];fontSize=11;fontFamily=Helvetica;fontColor=default;" parent="1817" vertex="1" connectable="0">
                    <mxGeometry x="-0.2572" y="1" relative="1" as="geometry">
                        <mxPoint x="38" y="-8" as="offset"/>
                    </mxGeometry>
                </mxCell>
                <mxCell id="1819" value="" style="endArrow=oval;html=1;fillStyle=auto;strokeWidth=1;startSize=6;endSize=6;fillColor=#000000;startArrow=none;startFill=0;endFill=0;fontStyle=0" parent="1" source="1838" edge="1">
                    <mxGeometry width="50" height="50" relative="1" as="geometry">
                        <mxPoint x="-3046.6104769412696" y="-629.7899999999998" as="sourcePoint"/>
                        <mxPoint x="-3097.4700000000003" y="-580.4999999999999" as="targetPoint"/>
                    </mxGeometry>
                </mxCell>
                <mxCell id="1820" value="data&lt;br&gt;fine" style="edgeLabel;html=1;align=center;verticalAlign=middle;resizable=0;points=[];" parent="1819" vertex="1" connectable="0">
                    <mxGeometry x="0.4791" y="1" relative="1" as="geometry">
                        <mxPoint x="-27" y="4" as="offset"/>
                    </mxGeometry>
                </mxCell>
                <mxCell id="1821" value="(1, 1)" style="edgeStyle=none;html=1;endArrow=none;endFill=0;entryX=0.5;entryY=1;entryDx=0;entryDy=0;fontStyle=0;exitX=0;exitY=0.5;exitDx=0;exitDy=0;" parent="1" source="1842" edge="1">
                    <mxGeometry x="-0.6758" y="-12" relative="1" as="geometry">
                        <mxPoint as="offset"/>
                        <Array as="points">
                            <mxPoint x="-2827.4700000000003" y="-538.68"/>
                        </Array>
                        <mxPoint x="-2828.080000000001" y="-602.0699999999998" as="targetPoint"/>
                        <mxPoint x="-2785.569116597551" y="-541.37696113415" as="sourcePoint"/>
                    </mxGeometry>
                </mxCell>
                <mxCell id="1822" style="edgeStyle=none;html=1;exitX=1;exitY=0.5;exitDx=0;exitDy=0;endArrow=none;endFill=0;fontStyle=0" parent="1" source="1845" target="1839" edge="1">
                    <mxGeometry relative="1" as="geometry">
                        <Array as="points">
                            <mxPoint x="-2512.8500000000004" y="-460.05999999999995"/>
                            <mxPoint x="-2512.8500000000004" y="-620.06"/>
                        </Array>
                        <mxPoint x="-2532.6000000000004" y="-459.7299999999997" as="sourcePoint"/>
                    </mxGeometry>
                </mxCell>
                <mxCell id="1823" style="edgeStyle=none;html=1;exitX=0;exitY=0.5;exitDx=0;exitDy=0;entryX=1;entryY=0.5;entryDx=0;entryDy=0;endArrow=none;endFill=0;fontStyle=0" parent="1" source="1845" target="1838" edge="1">
                    <mxGeometry relative="1" as="geometry">
                        <Array as="points">
                            <mxPoint x="-2927.4700000000003" y="-460.67999999999995"/>
                            <mxPoint x="-2927.4700000000003" y="-619.68"/>
                        </Array>
                    </mxGeometry>
                </mxCell>
                <mxCell id="1824" value="(0, N)" style="edgeStyle=none;html=1;endArrow=none;endFill=0;exitX=0.5;exitY=1;exitDx=0;exitDy=0;fontStyle=0" parent="1" target="1847" edge="1">
                    <mxGeometry x="0.6553" y="-20" relative="1" as="geometry">
                        <mxPoint as="offset"/>
                        <mxPoint x="-3049.92" y="-599.7899999999998" as="sourcePoint"/>
                    </mxGeometry>
                </mxCell>
                <mxCell id="1825" value="(1, 1)" style="edgeStyle=none;html=1;endArrow=none;endFill=0;fontStyle=0" parent="1" source="1847" target="1846" edge="1">
                    <mxGeometry x="-0.4543" y="-19" relative="1" as="geometry">
                        <mxPoint as="offset"/>
                    </mxGeometry>
                </mxCell>
                <mxCell id="1826" value="" style="endArrow=none;html=1;strokeColor=#000000;entryX=0;entryY=1;entryDx=0;entryDy=0;fontStyle=0" parent="1" target="1848" edge="1">
                    <mxGeometry width="50" height="50" relative="1" as="geometry">
                        <mxPoint x="-2574.6600000000003" y="-640.4499999999997" as="sourcePoint"/>
                        <mxPoint x="-2552.8500000000004" y="-660.06" as="targetPoint"/>
                    </mxGeometry>
                </mxCell>
                <mxCell id="1827" value="" style="endArrow=none;html=1;strokeColor=#000000;fontSize=11;fontColor=#FF0000;exitX=0;exitY=0.25;exitDx=0;exitDy=0;entryX=1;entryY=1;entryDx=0;entryDy=0;fontStyle=0" parent="1" source="1846" target="1850" edge="1">
                    <mxGeometry width="50" height="50" relative="1" as="geometry">
                        <mxPoint x="-3138.9400000000005" y="-420.01" as="sourcePoint"/>
                        <mxPoint x="-3119.33" y="-469.88" as="targetPoint"/>
                    </mxGeometry>
                </mxCell>
                <mxCell id="1828" value="" style="endArrow=none;html=1;strokeColor=#000000;fontSize=11;fontColor=#FF0000;fontStyle=0" parent="1" edge="1">
                    <mxGeometry width="50" height="50" relative="1" as="geometry">
                        <mxPoint x="-3069.33" y="-399.88" as="sourcePoint"/>
                        <mxPoint x="-3069.33" y="-419.88" as="targetPoint"/>
                    </mxGeometry>
                </mxCell>
                <mxCell id="1829" value="" style="endArrow=none;html=1;strokeColor=#000000;fontSize=10;fontColor=#FF0000;fontStyle=0" parent="1" edge="1">
                    <mxGeometry width="50" height="50" relative="1" as="geometry">
                        <mxPoint x="-3109.33" y="-439.88" as="sourcePoint"/>
                        <mxPoint x="-3029.33" y="-469.88" as="targetPoint"/>
                        <Array as="points">
                            <mxPoint x="-3109.33" y="-469.88"/>
                        </Array>
                    </mxGeometry>
                </mxCell>
                <mxCell id="1830" value="" style="edgeStyle=none;html=1;endArrow=none;endFill=0;fontStyle=0;exitX=1;exitY=0.5;exitDx=0;exitDy=0;" parent="1" source="1649" target="1838" edge="1">
                    <mxGeometry x="-0.4777" y="20" relative="1" as="geometry">
                        <mxPoint as="offset"/>
                        <mxPoint x="-3129.34" y="-620.16" as="sourcePoint"/>
                        <mxPoint x="-2939.4475814708458" y="-790.31" as="targetPoint"/>
                    </mxGeometry>
                </mxCell>
                <mxCell id="1838" value="LIVE" style="whiteSpace=wrap;html=1;" parent="1" vertex="1">
                    <mxGeometry x="-3088.9400000000005" y="-639.7899999999998" width="80" height="40" as="geometry"/>
                </mxCell>
                <mxCell id="1839" value="VIDEO" style="whiteSpace=wrap;html=1;" parent="1" vertex="1">
                    <mxGeometry x="-2632.46" y="-639.9699999999999" width="80" height="40" as="geometry"/>
                </mxCell>
                <mxCell id="1840" value="CLIP" style="whiteSpace=wrap;html=1;" parent="1" vertex="1">
                    <mxGeometry x="-2866.7300000000005" y="-639.4099999999997" width="80" height="39.62" as="geometry"/>
                </mxCell>
                <mxCell id="1841" value="(0, N)" style="edgeLabel;html=1;align=center;verticalAlign=middle;resizable=0;points=[];fontSize=11;fontFamily=Helvetica;fontColor=default;" parent="1" vertex="1" connectable="0">
                    <mxGeometry x="-2632.4600000000005" y="-549.8799999999995" as="geometry"/>
                </mxCell>
                <mxCell id="1842" value="scomposizione" style="rhombus;whiteSpace=wrap;html=1;" parent="1" vertex="1">
                    <mxGeometry x="-2767.4600000000005" y="-558.7199999999998" width="120" height="40" as="geometry"/>
                </mxCell>
                <mxCell id="1843" value="(0,1)" style="edgeLabel;html=1;align=center;verticalAlign=middle;resizable=0;points=[];" parent="1" vertex="1" connectable="0">
                    <mxGeometry x="-2807.641021335157" y="-470.0053522979167" as="geometry"/>
                </mxCell>
                <mxCell id="1844" value="(1,1)" style="edgeLabel;html=1;align=center;verticalAlign=middle;resizable=0;points=[];" parent="1" vertex="1" connectable="0">
                    <mxGeometry x="-2642.6276067585004" y="-470.00656359232346" as="geometry"/>
                </mxCell>
                <mxCell id="1845" value="riferimento" style="rhombus;whiteSpace=wrap;html=1;" parent="1" vertex="1">
                    <mxGeometry x="-2787.7800000000007" y="-479.9599999999998" width="120" height="40" as="geometry"/>
                </mxCell>
                <mxCell id="1846" value="AFFLUENZA" style="whiteSpace=wrap;html=1;" parent="1" vertex="1">
                    <mxGeometry x="-3089.5300000000007" y="-459.54999999999995" width="80" height="39.62" as="geometry"/>
                </mxCell>
                <mxCell id="1847" value="media&lt;br&gt;spettatori" style="rhombus;whiteSpace=wrap;html=1;" parent="1" vertex="1">
                    <mxGeometry x="-3099.25" y="-549.88" width="100.61" height="60" as="geometry"/>
                </mxCell>
                <mxCell id="1848" value="" style="ellipse;whiteSpace=wrap;html=1;aspect=fixed;strokeColor=#000000;" parent="1" vertex="1">
                    <mxGeometry x="-2554.000000000001" y="-667.0199999999999" width="5.67" height="5.67" as="geometry"/>
                </mxCell>
                <mxCell id="1849" value="&lt;font style=&quot;font-size: 11px;&quot;&gt;durata&lt;/font&gt;" style="text;html=1;align=center;verticalAlign=middle;resizable=0;points=[];autosize=1;strokeColor=none;fillColor=none;" parent="1" vertex="1">
                    <mxGeometry x="-2552.46" y="-680.4499999999999" width="50" height="30" as="geometry"/>
                </mxCell>
                <mxCell id="1850" value="" style="ellipse;whiteSpace=wrap;html=1;aspect=fixed;strokeColor=#000000;fontSize=11;fontColor=#FF0000;" parent="1" vertex="1">
                    <mxGeometry x="-3122.6000000000004" y="-475.14" width="5.13" height="5.13" as="geometry"/>
                </mxCell>
                <mxCell id="1851" value="" style="ellipse;whiteSpace=wrap;html=1;aspect=fixed;strokeColor=#000000;fontSize=11;fontColor=#FF0000;" parent="1" vertex="1">
                    <mxGeometry x="-3072.2" y="-399.62" width="5.74" height="5.74" as="geometry"/>
                </mxCell>
                <mxCell id="1852" value="&lt;font color=&quot;#000000&quot; style=&quot;font-size: 11px;&quot;&gt;numero &lt;br&gt;spettatori&lt;/font&gt;" style="text;html=1;align=center;verticalAlign=middle;resizable=0;points=[];autosize=1;strokeColor=none;fillColor=none;fontSize=11;fontColor=#FF0000;" parent="1" vertex="1">
                    <mxGeometry x="-3104.25" y="-399.62" width="70" height="40" as="geometry"/>
                </mxCell>
                <mxCell id="1853" value="&lt;font style=&quot;font-size: 11px;&quot; color=&quot;#000000&quot;&gt;timestamp&lt;/font&gt;" style="text;html=1;align=center;verticalAlign=middle;resizable=0;points=[];autosize=1;strokeColor=none;fillColor=none;fontSize=10;fontColor=#FF0000;" parent="1" vertex="1">
                    <mxGeometry x="-3187.4700000000003" y="-489.55000000000007" width="70" height="30" as="geometry"/>
                </mxCell>
                <mxCell id="1854" value="" style="shape=waypoint;fillStyle=solid;size=6;pointerEvents=1;points=[];fillColor=none;resizable=0;rotatable=0;perimeter=centerPerimeter;snapToPoint=1;strokeColor=#000000;fontSize=10;fontColor=#FF0000;" parent="1" vertex="1">
                    <mxGeometry x="-3119.25" y="-449.74" width="20" height="20" as="geometry"/>
                </mxCell>
                <mxCell id="1872" value="&lt;font style=&quot;font-size: 12px;&quot;&gt;contenuto&lt;br&gt;live&lt;/font&gt;" style="rhombus;whiteSpace=wrap;html=1;" parent="1" vertex="1">
                    <mxGeometry x="-3098.9399999999996" y="-755.63" width="100" height="50" as="geometry"/>
                </mxCell>
                <mxCell id="1873" value="&lt;font style=&quot;font-size: 12px;&quot;&gt;contenuto&lt;br&gt;clip&lt;/font&gt;" style="rhombus;whiteSpace=wrap;html=1;" parent="1" vertex="1">
                    <mxGeometry x="-2876.7300000000005" y="-755.63" width="100" height="50" as="geometry"/>
                </mxCell>
                <mxCell id="1874" value="&lt;font style=&quot;font-size: 12px;&quot;&gt;contenuto&lt;br&gt;video&lt;/font&gt;" style="rhombus;whiteSpace=wrap;html=1;" parent="1" vertex="1">
                    <mxGeometry x="-2647.4700000000003" y="-755.63" width="100" height="50" as="geometry"/>
                </mxCell>
                <mxCell id="1875" value="" style="endArrow=none;html=1;fontSize=10;entryX=0.5;entryY=1;entryDx=0;entryDy=0;exitX=0.5;exitY=0;exitDx=0;exitDy=0;" parent="1" source="1838" target="1872" edge="1">
                    <mxGeometry width="50" height="50" relative="1" as="geometry">
                        <mxPoint x="-3047.4700000000003" y="-615.63" as="sourcePoint"/>
                        <mxPoint x="-2997.4700000000003" y="-664.74" as="targetPoint"/>
                    </mxGeometry>
                </mxCell>
                <mxCell id="1876" value="" style="endArrow=none;html=1;fontSize=10;exitX=0.5;exitY=0;exitDx=0;exitDy=0;entryX=0.5;entryY=1;entryDx=0;entryDy=0;" parent="1" source="1840" target="1873" edge="1">
                    <mxGeometry width="50" height="50" relative="1" as="geometry">
                        <mxPoint x="-2829.7400000000007" y="-617.4999999999999" as="sourcePoint"/>
                        <mxPoint x="-2827.4700000000003" y="-645.63" as="targetPoint"/>
                    </mxGeometry>
                </mxCell>
                <mxCell id="1877" value="" style="endArrow=none;html=1;fontSize=10;exitX=0.436;exitY=0;exitDx=0;exitDy=0;entryX=0.5;entryY=1;entryDx=0;entryDy=0;exitPerimeter=0;" parent="1" source="1839" target="1874" edge="1">
                    <mxGeometry width="50" height="50" relative="1" as="geometry">
                        <mxPoint x="-2596.0500000000006" y="-614.7399999999999" as="sourcePoint"/>
                        <mxPoint x="-2597.4700000000003" y="-655.63" as="targetPoint"/>
                    </mxGeometry>
                </mxCell>
                <mxCell id="1878" value="" style="endArrow=oval;html=1;fillStyle=auto;strokeWidth=1;startSize=6;endSize=6;fillColor=#000000;startArrow=none;startFill=0;endFill=1;fontStyle=0;" parent="1" edge="1">
                    <mxGeometry width="50" height="50" relative="1" as="geometry">
                        <mxPoint x="-3063.94" y="-653.76" as="sourcePoint"/>
                        <mxPoint x="-3031" y="-654" as="targetPoint"/>
                        <Array as="points"/>
                    </mxGeometry>
                </mxCell>
                <mxCell id="1879" value="" style="endArrow=oval;html=1;fillStyle=auto;strokeWidth=1;startSize=6;endSize=6;fillColor=#000000;startArrow=none;startFill=0;endFill=1;fontStyle=0;" parent="1" edge="1">
                    <mxGeometry width="50" height="50" relative="1" as="geometry">
                        <mxPoint x="-2813" y="-654" as="sourcePoint"/>
                        <mxPoint x="-2841" y="-654" as="targetPoint"/>
                        <Array as="points"/>
                    </mxGeometry>
                </mxCell>
                <mxCell id="1880" value="" style="endArrow=oval;html=1;fillStyle=auto;strokeWidth=1;startSize=6;endSize=6;fillColor=#000000;startArrow=none;startFill=0;endFill=1;fontStyle=0;" parent="1" edge="1">
                    <mxGeometry width="50" height="50" relative="1" as="geometry">
                        <mxPoint x="-2583" y="-653" as="sourcePoint"/>
                        <mxPoint x="-2614" y="-653" as="targetPoint"/>
                        <Array as="points"/>
                    </mxGeometry>
                </mxCell>
                <mxCell id="1881" value="&lt;font style=&quot;font-size: 12px;&quot;&gt;(1,1)&lt;/font&gt;" style="text;html=1;align=center;verticalAlign=middle;resizable=0;points=[];autosize=1;strokeColor=none;fillColor=none;fontSize=10;" parent="1" vertex="1">
                    <mxGeometry x="-3090.34" y="-716" width="50" height="30" as="geometry"/>
                </mxCell>
                <mxCell id="1882" value="&lt;font style=&quot;font-size: 12px;&quot;&gt;(1,1)&lt;/font&gt;" style="text;html=1;align=center;verticalAlign=middle;resizable=0;points=[];autosize=1;strokeColor=none;fillColor=none;fontSize=11;" parent="1" vertex="1">
                    <mxGeometry x="-2832.6400000000003" y="-710.63" width="50" height="30" as="geometry"/>
                </mxCell>
                <mxCell id="1883" value="&lt;font style=&quot;font-size: 12px;&quot;&gt;(1,1)&lt;/font&gt;" style="text;html=1;align=center;verticalAlign=middle;resizable=0;points=[];autosize=1;strokeColor=none;fillColor=none;fontSize=11;" parent="1" vertex="1">
                    <mxGeometry x="-2602.46" y="-710.63" width="50" height="30" as="geometry"/>
                </mxCell>
                <mxCell id="1884" value="" style="endArrow=none;html=1;fontSize=11;exitX=0.5;exitY=0;exitDx=0;exitDy=0;entryX=0.333;entryY=1.001;entryDx=0;entryDy=0;entryPerimeter=0;" parent="1" source="1872" target="1948" edge="1">
                    <mxGeometry width="50" height="50" relative="1" as="geometry">
                        <mxPoint x="-3047.4700000000003" y="-670.63" as="sourcePoint"/>
                        <mxPoint x="-2890.4700000000003" y="-860" as="targetPoint"/>
                        <Array as="points">
                            <mxPoint x="-3048.4700000000003" y="-800.63"/>
                            <mxPoint x="-2897.4700000000003" y="-800"/>
                        </Array>
                    </mxGeometry>
                </mxCell>
                <mxCell id="1885" value="" style="endArrow=none;html=1;fontSize=11;exitX=0.5;exitY=0;exitDx=0;exitDy=0;entryX=0.584;entryY=1.004;entryDx=0;entryDy=0;entryPerimeter=0;" parent="1" source="1873" target="1948" edge="1">
                    <mxGeometry width="50" height="50" relative="1" as="geometry">
                        <mxPoint x="-2837.4700000000003" y="-730.63" as="sourcePoint"/>
                        <mxPoint x="-2857.4700000000003" y="-860" as="targetPoint"/>
                        <Array as="points">
                            <mxPoint x="-2827.4700000000003" y="-790.63"/>
                            <mxPoint x="-2867.4700000000003" y="-790"/>
                        </Array>
                    </mxGeometry>
                </mxCell>
                <mxCell id="1886" value="" style="endArrow=none;html=1;fontSize=11;exitX=0.5;exitY=0;exitDx=0;exitDy=0;entryX=0.834;entryY=1.004;entryDx=0;entryDy=0;entryPerimeter=0;" parent="1" source="1874" target="1948" edge="1">
                    <mxGeometry width="50" height="50" relative="1" as="geometry">
                        <mxPoint x="-2707.4700000000003" y="-770.63" as="sourcePoint"/>
                        <mxPoint x="-2827.4700000000003" y="-860" as="targetPoint"/>
                        <Array as="points">
                            <mxPoint x="-2597.4700000000003" y="-800.63"/>
                            <mxPoint x="-2837.4700000000003" y="-801"/>
                        </Array>
                    </mxGeometry>
                </mxCell>
                <mxCell id="1887" value="&lt;font style=&quot;font-size: 12px;&quot;&gt;(0,1)&lt;/font&gt;" style="text;html=1;align=center;verticalAlign=middle;resizable=0;points=[];autosize=1;strokeColor=none;fillColor=none;fontSize=11;" parent="1" vertex="1">
                    <mxGeometry x="-3052.4700000000003" y="-780.63" width="50" height="30" as="geometry"/>
                </mxCell>
                <mxCell id="1888" value="&lt;font style=&quot;font-size: 12px;&quot;&gt;(0,1)&lt;/font&gt;" style="text;html=1;align=center;verticalAlign=middle;resizable=0;points=[];autosize=1;strokeColor=none;fillColor=none;fontSize=11;" parent="1" vertex="1">
                    <mxGeometry x="-2832.6400000000003" y="-780.63" width="50" height="30" as="geometry"/>
                </mxCell>
                <mxCell id="1889" value="&lt;font style=&quot;font-size: 12px;&quot;&gt;(0,1)&lt;/font&gt;" style="text;html=1;align=center;verticalAlign=middle;resizable=0;points=[];autosize=1;strokeColor=none;fillColor=none;fontSize=11;" parent="1" vertex="1">
                    <mxGeometry x="-2602.46" y="-780.63" width="50" height="30" as="geometry"/>
                </mxCell>
                <mxCell id="1890" value="(1, 1)" style="edgeStyle=elbowEdgeStyle;elbow=vertical;html=1;exitX=0.5;exitY=1;exitDx=0;exitDy=0;entryX=0.5;entryY=0;entryDx=0;entryDy=0;endArrow=none;endFill=0;rounded=0;jumpStyle=arc;startArrow=none;" parent="1" source="1895" target="1897" edge="1">
                    <mxGeometry x="-0.4926" y="-19" relative="1" as="geometry">
                        <mxPoint as="offset"/>
                        <mxPoint x="-2796.8599999999997" y="-1431.22" as="targetPoint"/>
                        <Array as="points">
                            <mxPoint x="-2796.1400000000003" y="-1440.53"/>
                            <mxPoint x="-2796.1400000000003" y="-1440.53"/>
                            <mxPoint x="-2796.1400000000003" y="-1440.53"/>
                        </Array>
                    </mxGeometry>
                </mxCell>
                <mxCell id="1891" value="UTENTE" style="whiteSpace=wrap;html=1;" parent="1" vertex="1">
                    <mxGeometry x="-2847.4700000000003" y="-1591.35" width="100" height="40" as="geometry"/>
                </mxCell>
                <mxCell id="1892" value="" style="endArrow=oval;html=1;fillStyle=auto;strokeWidth=1;startSize=6;endSize=6;fillColor=#000000;startArrow=none;startFill=0;endFill=1;exitX=0.5;exitY=0;exitDx=0;exitDy=0;" parent="1" source="1891" edge="1">
                    <mxGeometry width="50" height="50" relative="1" as="geometry">
                        <mxPoint x="-2656.7200000000003" y="-1010.3300000000004" as="sourcePoint"/>
                        <mxPoint x="-2797.4700000000003" y="-1620" as="targetPoint"/>
                    </mxGeometry>
                </mxCell>
                <mxCell id="1893" value="nome utente" style="edgeLabel;html=1;align=center;verticalAlign=middle;resizable=0;points=[];" parent="1892" vertex="1" connectable="0">
                    <mxGeometry x="0.4791" y="1" relative="1" as="geometry">
                        <mxPoint x="-39" y="-7" as="offset"/>
                    </mxGeometry>
                </mxCell>
                <mxCell id="1894" value="(0, 1)" style="edgeStyle=elbowEdgeStyle;elbow=vertical;html=1;endArrow=none;endFill=0;rounded=0;jumpStyle=arc;exitX=0.5;exitY=1;exitDx=0;exitDy=0;entryX=0.5;entryY=0;entryDx=0;entryDy=0;" parent="1" source="1891" target="1895" edge="1">
                    <mxGeometry x="0.51" y="-19" relative="1" as="geometry">
                        <mxPoint x="-2796.1400000000003" y="-1545.53" as="sourcePoint"/>
                        <mxPoint x="-2797.1400000000003" y="-1511.53" as="targetPoint"/>
                        <mxPoint as="offset"/>
                        <Array as="points"/>
                    </mxGeometry>
                </mxCell>
                <mxCell id="1895" value="partizione" style="rhombus;whiteSpace=wrap;html=1;" parent="1" vertex="1">
                    <mxGeometry x="-2837.4700000000003" y="-1510.53" width="80" height="40" as="geometry"/>
                </mxCell>
                <mxCell id="1896" value="" style="endArrow=oval;html=1;fillStyle=auto;strokeWidth=1;startSize=6;endSize=6;fillColor=#000000;startArrow=none;startFill=0;endFill=1;" parent="1" edge="1">
                    <mxGeometry width="50" height="50" relative="1" as="geometry">
                        <mxPoint x="-2780" y="-1444.32" as="sourcePoint"/>
                        <mxPoint x="-2810" y="-1444.32" as="targetPoint"/>
                    </mxGeometry>
                </mxCell>
                <mxCell id="1897" value="REGISTRATO" style="whiteSpace=wrap;html=1;" parent="1" vertex="1">
                    <mxGeometry x="-2847.4700000000003" y="-1433.09" width="100" height="40" as="geometry"/>
                </mxCell>
                <mxCell id="1898" value="" style="endArrow=oval;html=1;fillStyle=auto;strokeWidth=1;startSize=6;endSize=6;fillColor=#000000;startArrow=none;startFill=0;endFill=0;exitX=0;exitY=0.75;exitDx=0;exitDy=0;" parent="1" source="1897" edge="1">
                    <mxGeometry width="50" height="50" relative="1" as="geometry">
                        <mxPoint x="-2836.1400000000003" y="-1414.29" as="sourcePoint"/>
                        <mxPoint x="-2877.4700000000003" y="-1393" as="targetPoint"/>
                    </mxGeometry>
                </mxCell>
                <mxCell id="1899" value="password" style="edgeLabel;html=1;align=center;verticalAlign=middle;resizable=0;points=[];" parent="1898" vertex="1" connectable="0">
                    <mxGeometry x="0.4791" y="1" relative="1" as="geometry">
                        <mxPoint x="-38" y="8" as="offset"/>
                    </mxGeometry>
                </mxCell>
                <mxCell id="1900" value="" style="endArrow=oval;html=1;fillStyle=auto;strokeWidth=1;startSize=6;endSize=6;fillColor=#000000;startArrow=none;startFill=0;endFill=0;exitX=0.899;exitY=0.998;exitDx=0;exitDy=0;exitPerimeter=0;" parent="1" source="1897" edge="1">
                    <mxGeometry width="50" height="50" relative="1" as="geometry">
                        <mxPoint x="-2757.4700000000003" y="-1390" as="sourcePoint"/>
                        <mxPoint x="-2727.4700000000003" y="-1370" as="targetPoint"/>
                    </mxGeometry>
                </mxCell>
                <mxCell id="1901" value="indirizzo&lt;br&gt;mail" style="edgeLabel;html=1;align=center;verticalAlign=middle;resizable=0;points=[];" parent="1900" vertex="1" connectable="0">
                    <mxGeometry x="0.4791" y="1" relative="1" as="geometry">
                        <mxPoint x="32" y="14" as="offset"/>
                    </mxGeometry>
                </mxCell>
                <mxCell id="1902" value="" style="endArrow=oval;html=1;fillStyle=auto;strokeWidth=1;startSize=6;endSize=6;fillColor=#000000;startArrow=none;startFill=0;endFill=0;exitX=0.893;exitY=0.019;exitDx=0;exitDy=0;exitPerimeter=0;" parent="1" source="1897" edge="1">
                    <mxGeometry width="50" height="50" relative="1" as="geometry">
                        <mxPoint x="-2722.9" y="-1463.73" as="sourcePoint"/>
                        <mxPoint x="-2737.4700000000003" y="-1460" as="targetPoint"/>
                    </mxGeometry>
                </mxCell>
                <mxCell id="1903" value="numero di&lt;br&gt;telefono" style="edgeLabel;html=1;align=center;verticalAlign=middle;resizable=0;points=[];" parent="1902" vertex="1" connectable="0">
                    <mxGeometry x="0.4791" y="1" relative="1" as="geometry">
                        <mxPoint x="19" y="-26" as="offset"/>
                    </mxGeometry>
                </mxCell>
                <mxCell id="1904" value="" style="endArrow=oval;html=1;fillStyle=auto;strokeWidth=1;startSize=6;endSize=6;fillColor=#000000;startArrow=none;startFill=0;endFill=0;" parent="1" edge="1">
                    <mxGeometry width="50" height="50" relative="1" as="geometry">
                        <mxPoint x="-2747.4700000000003" y="-1420" as="sourcePoint"/>
                        <mxPoint x="-2697.4700000000003" y="-1450" as="targetPoint"/>
                        <Array as="points"/>
                    </mxGeometry>
                </mxCell>
                <mxCell id="1905" value="data di&lt;br&gt;nascita" style="edgeLabel;html=1;align=center;verticalAlign=middle;resizable=0;points=[];" parent="1904" vertex="1" connectable="0">
                    <mxGeometry x="0.4791" y="1" relative="1" as="geometry">
                        <mxPoint x="38" y="-12" as="offset"/>
                    </mxGeometry>
                </mxCell>
                <mxCell id="1906" value="" style="endArrow=oval;html=1;fillStyle=auto;strokeWidth=1;startSize=6;endSize=6;fillColor=#000000;startArrow=none;startFill=0;endFill=0;exitX=0;exitY=0.145;exitDx=0;exitDy=0;exitPerimeter=0;" parent="1" source="1897" edge="1">
                    <mxGeometry width="50" height="50" relative="1" as="geometry">
                        <mxPoint x="-2827.0248388800846" y="-1433.09" as="sourcePoint"/>
                        <mxPoint x="-2877.4700000000003" y="-1440" as="targetPoint"/>
                        <Array as="points"/>
                    </mxGeometry>
                </mxCell>
                <mxCell id="1907" value="LIS" style="edgeLabel;html=1;align=center;verticalAlign=middle;resizable=0;points=[];" parent="1906" vertex="1" connectable="0">
                    <mxGeometry x="0.4791" y="1" relative="1" as="geometry">
                        <mxPoint x="-24" y="-10" as="offset"/>
                    </mxGeometry>
                </mxCell>
                <mxCell id="1908" value="" style="endArrow=oval;html=1;fillStyle=auto;strokeWidth=1;startSize=6;endSize=6;fillColor=#000000;startArrow=none;startFill=0;endFill=0;exitX=0.997;exitY=0.894;exitDx=0;exitDy=0;exitPerimeter=0;" parent="1" source="1897" edge="1">
                    <mxGeometry width="50" height="50" relative="1" as="geometry">
                        <mxPoint x="-2766.4549606299215" y="-1383.0900000000001" as="sourcePoint"/>
                        <mxPoint x="-2707.4700000000003" y="-1390" as="targetPoint"/>
                    </mxGeometry>
                </mxCell>
                <mxCell id="1909" value="premium" style="edgeLabel;html=1;align=center;verticalAlign=middle;resizable=0;points=[];" parent="1908" vertex="1" connectable="0">
                    <mxGeometry x="0.4791" y="1" relative="1" as="geometry">
                        <mxPoint x="39" y="6" as="offset"/>
                    </mxGeometry>
                </mxCell>
                <mxCell id="1910" value="&lt;font style=&quot;font-size: 10px;&quot;&gt;(0,1)&lt;/font&gt;" style="text;html=1;align=center;verticalAlign=middle;resizable=0;points=[];autosize=1;strokeColor=none;fillColor=none;" parent="1" vertex="1">
                    <mxGeometry x="-2776.73" y="-1474.32" width="40" height="30" as="geometry"/>
                </mxCell>
                <mxCell id="1911" value="(0,1)" style="text;html=1;align=center;verticalAlign=middle;resizable=0;points=[];autosize=1;strokeColor=none;fillColor=none;fontSize=10;" parent="1" vertex="1">
                    <mxGeometry x="-2763.28" y="-1379.0900000000001" width="39" height="24" as="geometry"/>
                </mxCell>
                <mxCell id="1912" value="" style="endArrow=oval;html=1;fillStyle=auto;strokeWidth=1;startSize=6;endSize=6;fillColor=#000000;startArrow=none;startFill=0;endFill=0;strokeColor=#000000;exitX=0.102;exitY=0.994;exitDx=0;exitDy=0;exitPerimeter=0;" parent="1" source="1897" edge="1">
                    <mxGeometry width="50" height="50" relative="1" as="geometry">
                        <mxPoint x="-2837.4700000000003" y="-1390" as="sourcePoint"/>
                        <mxPoint x="-2847.6400000000003" y="-1363.09" as="targetPoint"/>
                    </mxGeometry>
                </mxCell>
                <mxCell id="1913" value="&lt;font style=&quot;font-size: 10px;&quot;&gt;(0, 1)&lt;/font&gt;" style="edgeLabel;html=1;align=center;verticalAlign=middle;resizable=0;points=[];fontSize=11;fontFamily=Helvetica;fontColor=default;" parent="1" vertex="1" connectable="0">
                    <mxGeometry x="-2851.640519365158" y="-1379.0897648541804" as="geometry">
                        <mxPoint x="-8" y="4" as="offset"/>
                    </mxGeometry>
                </mxCell>
                <mxCell id="1914" value="&lt;font style=&quot;font-size: 11px;&quot;&gt;affiliate&lt;/font&gt;" style="text;html=1;align=center;verticalAlign=middle;resizable=0;points=[];autosize=1;strokeColor=none;fillColor=none;" parent="1" vertex="1">
                    <mxGeometry x="-2898.66" y="-1370.0000000000002" width="60" height="30" as="geometry"/>
                </mxCell>
                <mxCell id="1924" style="edgeStyle=none;html=1;exitX=1.002;exitY=0.683;exitDx=0;exitDy=0;endArrow=none;endFill=0;entryX=0;entryY=0.5;entryDx=0;entryDy=0;exitPerimeter=0;strokeWidth=1;strokeColor=#000000;" parent="1" target="1937" edge="1" source="1948">
                    <mxGeometry relative="1" as="geometry">
                        <Array as="points">
                            <mxPoint x="-2770" y="-900"/>
                            <mxPoint x="-2770" y="-850"/>
                        </Array>
                        <mxPoint x="-2817.4400000000005" y="-900.2604500000002" as="sourcePoint"/>
                    </mxGeometry>
                </mxCell>
                <mxCell id="1934" value="" style="edgeStyle=none;shape=connector;rounded=1;fillStyle=auto;html=1;labelBackgroundColor=default;strokeColor=#000000;strokeWidth=1;fontFamily=Helvetica;fontSize=11;fontColor=default;endArrow=none;endFill=0;startSize=6;endSize=6;fillColor=#000000;exitX=1;exitY=0.5;exitDx=0;exitDy=0;entryX=0;entryY=0.5;entryDx=0;entryDy=0;" parent="1" source="1937" target="1938" edge="1">
                    <mxGeometry relative="1" as="geometry">
                        <mxPoint x="-2517.59" y="-892.2800000000002" as="sourcePoint"/>
                        <mxPoint x="-2459.01" y="-857.97" as="targetPoint"/>
                        <Array as="points"/>
                    </mxGeometry>
                </mxCell>
                <mxCell id="1935" value="(0, N)" style="edgeLabel;html=1;align=center;verticalAlign=middle;resizable=0;points=[];fontSize=11;fontFamily=Helvetica;fontColor=default;strokeColor=#000000;" parent="1934" vertex="1" connectable="0">
                    <mxGeometry x="0.4262" y="1" relative="1" as="geometry">
                        <mxPoint x="-44" y="-9" as="offset"/>
                    </mxGeometry>
                </mxCell>
                <mxCell id="1936" value="(0, N)" style="edgeLabel;html=1;align=center;verticalAlign=middle;resizable=0;points=[];strokeColor=#000000;" parent="1" vertex="1" connectable="0">
                    <mxGeometry x="-2713.166390247731" y="-860.2006934179957" as="geometry">
                        <mxPoint as="offset"/>
                    </mxGeometry>
                </mxCell>
                <mxCell id="1937" value="&lt;font style=&quot;font-size: 11px;&quot;&gt;associazione&lt;sub style=&quot;&quot;&gt;(CM-H)&lt;/sub&gt;&lt;/font&gt;" style="rhombus;whiteSpace=wrap;html=1;strokeColor=#000000;strokeWidth=1;" parent="1" vertex="1">
                    <mxGeometry x="-2691.17" y="-870.2" width="160" height="40.2" as="geometry"/>
                </mxCell>
                <mxCell id="1938" value="HASHTAG" style="rounded=0;whiteSpace=wrap;html=1;" parent="1" vertex="1">
                    <mxGeometry x="-2438" y="-870.1999999999998" width="80" height="40" as="geometry"/>
                </mxCell>
                <mxCell id="1939" value="" style="endArrow=oval;html=1;fillStyle=auto;strokeWidth=1;startSize=6;endSize=6;fillColor=#000000;startArrow=none;startFill=0;endFill=1;exitX=1;exitY=0.5;exitDx=0;exitDy=0;" parent="1" source="1938" edge="1">
                    <mxGeometry width="50" height="50" relative="1" as="geometry">
                        <mxPoint x="-2399" y="-900.25" as="sourcePoint"/>
                        <mxPoint x="-2331.17" y="-850.2" as="targetPoint"/>
                        <Array as="points"/>
                    </mxGeometry>
                </mxCell>
                <mxCell id="1940" value="nome" style="edgeLabel;html=1;align=center;verticalAlign=middle;resizable=0;points=[];" parent="1939" vertex="1" connectable="0">
                    <mxGeometry x="0.4791" y="1" relative="1" as="geometry">
                        <mxPoint x="28" y="1" as="offset"/>
                    </mxGeometry>
                </mxCell>
                <mxCell id="1948" value="CONTENUTO&lt;br&gt;MULTIMEDIALE" style="rounded=0;whiteSpace=wrap;html=1;" parent="1" vertex="1">
                    <mxGeometry x="-2937.66" y="-934.2500000000001" width="120" height="50.15" as="geometry"/>
                </mxCell>
                <mxCell id="1951" value="" style="endArrow=oval;html=1;fillStyle=auto;strokeWidth=1;startSize=6;endSize=6;fillColor=#000000;startArrow=none;startFill=0;endFill=0;exitX=0.164;exitY=0.999;exitDx=0;exitDy=0;exitPerimeter=0;" parent="1" source="1948" edge="1">
                    <mxGeometry width="50" height="50" relative="1" as="geometry">
                        <mxPoint x="-2917.4700000000003" y="-880" as="sourcePoint"/>
                        <mxPoint x="-2947.4700000000003" y="-860" as="targetPoint"/>
                    </mxGeometry>
                </mxCell>
                <mxCell id="1952" value="LIS" style="edgeLabel;html=1;align=center;verticalAlign=middle;resizable=0;points=[];" parent="1951" vertex="1" connectable="0">
                    <mxGeometry x="0.4791" y="1" relative="1" as="geometry">
                        <mxPoint x="-18" y="16" as="offset"/>
                    </mxGeometry>
                </mxCell>
                <mxCell id="1953" value="" style="endArrow=oval;html=1;fillStyle=auto;strokeWidth=1;startSize=6;endSize=6;fillColor=#000000;startArrow=none;startFill=0;endFill=1;" parent="1" edge="1">
                    <mxGeometry width="50" height="50" relative="1" as="geometry">
                        <mxPoint x="-2862.37" y="-1102.83" as="sourcePoint"/>
                        <mxPoint x="-2892.37" y="-1102.83" as="targetPoint"/>
                    </mxGeometry>
                </mxCell>
                <mxCell id="1955" value="" style="endArrow=oval;html=1;fillStyle=auto;strokeWidth=1;startSize=6;endSize=6;fillColor=#000000;startArrow=none;startFill=0;endFill=1;" parent="1" edge="1">
                    <mxGeometry width="50" height="50" relative="1" as="geometry">
                        <mxPoint x="-2450" y="-1402.73" as="sourcePoint"/>
                        <mxPoint x="-2450" y="-1426.73" as="targetPoint"/>
                    </mxGeometry>
                </mxCell>
                <mxCell id="1968" value="&lt;font style=&quot;font-size: 11px;&quot;&gt;timestamp&lt;/font&gt;" style="text;html=1;align=center;verticalAlign=middle;resizable=0;points=[];autosize=1;strokeColor=none;fillColor=none;" parent="1" vertex="1">
                    <mxGeometry x="-2461.3599999999997" y="-1361.2400000000002" width="70" height="30" as="geometry"/>
                </mxCell>
                <mxCell id="1971" value="" style="endArrow=oval;html=1;fillStyle=auto;strokeWidth=1;startSize=6;endSize=6;fillColor=#000000;startArrow=none;startFill=0;endFill=1;exitX=0.595;exitY=-0.005;exitDx=0;exitDy=0;entryX=0.024;entryY=0.571;entryDx=0;entryDy=0;entryPerimeter=0;exitPerimeter=0;" parent="1" source="1948" target="1972" edge="1">
                    <mxGeometry width="50" height="50" relative="1" as="geometry">
                        <mxPoint x="-2849.01" y="-960" as="sourcePoint"/>
                        <mxPoint x="-2820.01" y="-960" as="targetPoint"/>
                    </mxGeometry>
                </mxCell>
                <mxCell id="1972" value="&lt;font style=&quot;font-size: 11px;&quot;&gt;URL&lt;/font&gt;" style="text;html=1;align=center;verticalAlign=middle;resizable=0;points=[];autosize=1;strokeColor=none;fillColor=none;" parent="1" vertex="1">
                    <mxGeometry x="-2836.64" y="-980" width="50" height="30" as="geometry"/>
                </mxCell>
                <mxCell id="1973" value="" style="endArrow=oval;html=1;fillStyle=auto;strokeWidth=1;startSize=6;endSize=6;fillColor=#000000;startArrow=none;startFill=0;endFill=0;exitX=0.38;exitY=0.002;exitDx=0;exitDy=0;exitPerimeter=0;" parent="1" edge="1">
                    <mxGeometry width="50" height="50" relative="1" as="geometry">
                        <mxPoint x="-3292.38" y="-638.6399999999999" as="sourcePoint"/>
                        <mxPoint x="-3270" y="-670" as="targetPoint"/>
                    </mxGeometry>
                </mxCell>
                <mxCell id="1974" value="&lt;font style=&quot;font-size: 11px;&quot;&gt;timestamp&lt;/font&gt;" style="text;html=1;align=center;verticalAlign=middle;resizable=0;points=[];autosize=1;strokeColor=none;fillColor=none;" parent="1" vertex="1">
                    <mxGeometry x="-3297.47" y="-697.0199999999999" width="70" height="30" as="geometry"/>
                </mxCell>
                <mxCell id="1975" value="" style="endArrow=oval;html=1;fillStyle=auto;strokeWidth=1;startSize=6;endSize=6;fillColor=#000000;startArrow=none;startFill=0;endFill=0;exitX=0.38;exitY=0.002;exitDx=0;exitDy=0;exitPerimeter=0;" parent="1" edge="1">
                    <mxGeometry width="50" height="50" relative="1" as="geometry">
                        <mxPoint x="-2827.3700000000003" y="-1433.09" as="sourcePoint"/>
                        <mxPoint x="-2853.13" y="-1463.2099999999998" as="targetPoint"/>
                    </mxGeometry>
                </mxCell>
                <mxCell id="1976" value="&lt;font style=&quot;font-size: 11px;&quot;&gt;data di &lt;br&gt;registrazione&lt;/font&gt;" style="text;html=1;align=center;verticalAlign=middle;resizable=0;points=[];autosize=1;strokeColor=none;fillColor=none;" parent="1" vertex="1">
                    <mxGeometry x="-2922.37" y="-1500" width="90" height="40" as="geometry"/>
                </mxCell>
                <mxCell id="1977" value="donazione" style="rhombus;whiteSpace=wrap;html=1;" parent="1" vertex="1">
                    <mxGeometry x="-2192.66" y="-1359.17" width="80" height="50.53" as="geometry"/>
                </mxCell>
                <mxCell id="1978" value="" style="endArrow=none;html=1;entryX=1;entryY=0.5;entryDx=0;entryDy=0;exitX=0.5;exitY=0;exitDx=0;exitDy=0;" parent="1" source="1977" target="1441" edge="1">
                    <mxGeometry width="50" height="50" relative="1" as="geometry">
                        <mxPoint x="-2180" y="-1300" as="sourcePoint"/>
                        <mxPoint x="-2130" y="-1350" as="targetPoint"/>
                        <Array as="points">
                            <mxPoint x="-2153" y="-1415"/>
                        </Array>
                    </mxGeometry>
                </mxCell>
                <mxCell id="1979" value="" style="endArrow=none;html=1;entryX=0.5;entryY=1;entryDx=0;entryDy=0;exitX=1;exitY=0.25;exitDx=0;exitDy=0;" parent="1" source="1413" target="1977" edge="1">
                    <mxGeometry width="50" height="50" relative="1" as="geometry">
                        <mxPoint x="-2700" y="-1060" as="sourcePoint"/>
                        <mxPoint x="-2130" y="-1240" as="targetPoint"/>
                        <Array as="points">
                            <mxPoint x="-2780" y="-1080"/>
                            <mxPoint x="-2780" y="-1130"/>
                            <mxPoint x="-2660" y="-1130"/>
                            <mxPoint x="-2660" y="-1230"/>
                            <mxPoint x="-2153" y="-1230"/>
                        </Array>
                    </mxGeometry>
                </mxCell>
                <mxCell id="1980" value="bits" style="endArrow=oval;html=1;fillStyle=auto;strokeWidth=1;startSize=6;endSize=6;fillColor=#000000;startArrow=none;startFill=0;endFill=0;strokeColor=#000000;exitX=0.81;exitY=0.694;exitDx=0;exitDy=0;exitPerimeter=0;" parent="1" source="1977" edge="1">
                    <mxGeometry x="1" y="20" width="50" height="50" relative="1" as="geometry">
                        <mxPoint x="-2136.923033175355" y="-1320.857089751185" as="sourcePoint"/>
                        <mxPoint x="-2102.66" y="-1309.17" as="targetPoint"/>
                        <mxPoint x="11" y="18" as="offset"/>
                    </mxGeometry>
                </mxCell>
                <mxCell id="1981" value="timestamp" style="endArrow=oval;html=1;fillStyle=auto;strokeWidth=1;startSize=6;endSize=6;fillColor=#000000;startArrow=none;startFill=0;endFill=0;strokeColor=#000000;exitX=1;exitY=0;exitDx=0;exitDy=0;" parent="1" source="1977" edge="1">
                    <mxGeometry x="1" y="-32" width="50" height="50" relative="1" as="geometry">
                        <mxPoint x="-2131.14" y="-1341.66335" as="sourcePoint"/>
                        <mxPoint x="-2104.66" y="-1369.17" as="targetPoint"/>
                        <mxPoint x="12" y="-25" as="offset"/>
                    </mxGeometry>
                </mxCell>
                <mxCell id="1982" value="&lt;font color=&quot;#000000&quot;&gt;(0, N)&lt;/font&gt;" style="text;html=1;align=center;verticalAlign=middle;resizable=0;points=[];autosize=1;strokeColor=none;fillColor=none;fontColor=#FF0000;" parent="1" vertex="1">
                    <mxGeometry x="-2200" y="-1388.64" width="50" height="30" as="geometry"/>
                </mxCell>
                <mxCell id="1983" value="&lt;font color=&quot;#000000&quot;&gt;(0, N)&lt;/font&gt;" style="text;html=1;align=center;verticalAlign=middle;resizable=0;points=[];autosize=1;strokeColor=none;fillColor=none;fontColor=#FF0000;" parent="1" vertex="1">
                    <mxGeometry x="-2200" y="-1308.64" width="50" height="30" as="geometry"/>
                </mxCell>
                <mxCell id="1994" value="gestione" style="rhombus;whiteSpace=wrap;html=1;" vertex="1" parent="1">
                    <mxGeometry x="-2526" y="-1158.5299999999997" width="80" height="40" as="geometry"/>
                </mxCell>
                <mxCell id="1995" value="hosting" style="rhombus;whiteSpace=wrap;html=1;" vertex="1" parent="1">
                    <mxGeometry x="-2526" y="-1019.9999999999999" width="80" height="40" as="geometry"/>
                </mxCell>
                <mxCell id="1996" value="AMMINISTRATORE" style="rounded=0;whiteSpace=wrap;html=1;" vertex="1" parent="1">
                    <mxGeometry x="-2390" y="-1158.5299999999997" width="130" height="40" as="geometry"/>
                </mxCell>
                <mxCell id="1997" value="PROVIDER" style="rounded=0;whiteSpace=wrap;html=1;" vertex="1" parent="1">
                    <mxGeometry x="-2370" y="-1019.9999999999999" width="90" height="40" as="geometry"/>
                </mxCell>
                <mxCell id="1998" value="rinnovo" style="rhombus;whiteSpace=wrap;html=1;" vertex="1" parent="1">
                    <mxGeometry x="-2365" y="-1089.2599999999998" width="80" height="40" as="geometry"/>
                </mxCell>
                <mxCell id="1999" value="" style="endArrow=none;html=1;entryX=0.5;entryY=1;entryDx=0;entryDy=0;exitX=0.5;exitY=0;exitDx=0;exitDy=0;" edge="1" parent="1" source="1998" target="1996">
                    <mxGeometry width="50" height="50" relative="1" as="geometry">
                        <mxPoint x="-2480" y="-1045.2599999999998" as="sourcePoint"/>
                        <mxPoint x="-2430" y="-1095.2599999999998" as="targetPoint"/>
                    </mxGeometry>
                </mxCell>
                <mxCell id="2000" value="" style="endArrow=none;html=1;exitX=0.5;exitY=0;exitDx=0;exitDy=0;entryX=0.5;entryY=1;entryDx=0;entryDy=0;" edge="1" parent="1" source="1997" target="1998">
                    <mxGeometry width="50" height="50" relative="1" as="geometry">
                        <mxPoint x="-2325.1800000000003" y="-1012.7399999999999" as="sourcePoint"/>
                        <mxPoint x="-2325" y="-1035.2599999999998" as="targetPoint"/>
                    </mxGeometry>
                </mxCell>
                <mxCell id="2001" value="" style="endArrow=none;html=1;exitX=1;exitY=0.5;exitDx=0;exitDy=0;entryX=0;entryY=0.5;entryDx=0;entryDy=0;" edge="1" parent="1" source="1994" target="1996">
                    <mxGeometry width="50" height="50" relative="1" as="geometry">
                        <mxPoint x="-2435.1800000000003" y="-1117.6999999999998" as="sourcePoint"/>
                        <mxPoint x="-2420" y="-1145.2599999999998" as="targetPoint"/>
                    </mxGeometry>
                </mxCell>
                <mxCell id="2002" value="" style="endArrow=none;html=1;entryX=0;entryY=0.5;entryDx=0;entryDy=0;exitX=1;exitY=0.5;exitDx=0;exitDy=0;" edge="1" parent="1" source="1995" target="1997">
                    <mxGeometry width="50" height="50" relative="1" as="geometry">
                        <mxPoint x="-2440" y="-1000.2599999999999" as="sourcePoint"/>
                        <mxPoint x="-2390" y="-1000.2499999999999" as="targetPoint"/>
                    </mxGeometry>
                </mxCell>
                <mxCell id="2003" value="&lt;font style=&quot;font-size: 11px;&quot;&gt;(1, 1)&lt;/font&gt;" style="text;html=1;align=center;verticalAlign=middle;resizable=0;points=[];autosize=1;strokeColor=none;fillColor=none;" vertex="1" parent="1">
                    <mxGeometry x="-2570" y="-1165.2599999999998" width="50" height="30" as="geometry"/>
                </mxCell>
                <mxCell id="2004" value="&lt;font style=&quot;font-size: 11px;&quot;&gt;(1, 1)&lt;/font&gt;" style="text;html=1;align=center;verticalAlign=middle;resizable=0;points=[];autosize=1;strokeColor=none;fillColor=none;" vertex="1" parent="1">
                    <mxGeometry x="-2570" y="-1025.2599999999998" width="50" height="30" as="geometry"/>
                </mxCell>
                <mxCell id="2005" value="&lt;font style=&quot;font-size: 11px;&quot;&gt;(1, N)&lt;/font&gt;" style="text;html=1;align=center;verticalAlign=middle;resizable=0;points=[];autosize=1;strokeColor=none;fillColor=none;" vertex="1" parent="1">
                    <mxGeometry x="-2450" y="-1164.8099999999997" width="50" height="30" as="geometry"/>
                </mxCell>
                <mxCell id="2006" value="&lt;font style=&quot;font-size: 11px;&quot;&gt;(0, N)&lt;/font&gt;" style="text;html=1;align=center;verticalAlign=middle;resizable=0;points=[];autosize=1;strokeColor=none;fillColor=none;" vertex="1" parent="1">
                    <mxGeometry x="-2450" y="-1025.2599999999998" width="50" height="30" as="geometry"/>
                </mxCell>
                <mxCell id="2007" value="&lt;font style=&quot;font-size: 11px;&quot;&gt;(0, N)&lt;/font&gt;" style="text;html=1;align=center;verticalAlign=middle;resizable=0;points=[];autosize=1;strokeColor=none;fillColor=none;" vertex="1" parent="1">
                    <mxGeometry x="-2370" y="-1111.2599999999998" width="50" height="30" as="geometry"/>
                </mxCell>
                <mxCell id="2008" value="&lt;font style=&quot;font-size: 11px;&quot;&gt;(0, N)&lt;/font&gt;" style="text;html=1;align=center;verticalAlign=middle;resizable=0;points=[];autosize=1;strokeColor=none;fillColor=none;" vertex="1" parent="1">
                    <mxGeometry x="-2370" y="-1055.2599999999998" width="50" height="30" as="geometry"/>
                </mxCell>
                <mxCell id="2009" value="" style="endArrow=oval;html=1;fillStyle=auto;strokeWidth=1;startSize=6;endSize=6;fillColor=#000000;startArrow=none;startFill=0;endFill=0;exitX=0.774;exitY=0.275;exitDx=0;exitDy=0;exitPerimeter=0;fontSize=11;" edge="1" parent="1" source="1998">
                    <mxGeometry width="50" height="50" relative="1" as="geometry">
                        <mxPoint x="-2290" y="-1095.1799999999998" as="sourcePoint"/>
                        <mxPoint x="-2280" y="-1095.2599999999998" as="targetPoint"/>
                    </mxGeometry>
                </mxCell>
                <mxCell id="2010" value="" style="endArrow=oval;html=1;fillStyle=auto;strokeWidth=1;startSize=6;endSize=6;fillColor=#000000;startArrow=none;startFill=0;endFill=0;exitX=1;exitY=1;exitDx=0;exitDy=0;fontSize=11;" edge="1" parent="1" source="1998">
                    <mxGeometry width="50" height="50" relative="1" as="geometry">
                        <mxPoint x="-2308.08" y="-1025.2599999999998" as="sourcePoint"/>
                        <mxPoint x="-2280" y="-1045.2599999999998" as="targetPoint"/>
                    </mxGeometry>
                </mxCell>
                <mxCell id="2011" value="pagato" style="text;html=1;align=center;verticalAlign=middle;resizable=0;points=[];autosize=1;strokeColor=none;fillColor=none;fontSize=11;" vertex="1" parent="1">
                    <mxGeometry x="-2285" y="-1060.4899999999998" width="60" height="30" as="geometry"/>
                </mxCell>
                <mxCell id="2012" value="scadenza" style="text;html=1;align=center;verticalAlign=middle;resizable=0;points=[];autosize=1;strokeColor=none;fillColor=none;fontSize=11;" vertex="1" parent="1">
                    <mxGeometry x="-2285" y="-1110.1799999999998" width="70" height="30" as="geometry"/>
                </mxCell>
                <mxCell id="2013" value="" style="endArrow=oval;html=1;fillStyle=auto;strokeWidth=1;startSize=6;endSize=6;fillColor=#000000;startArrow=none;startFill=0;endFill=0;exitX=0.373;exitY=-0.002;exitDx=0;exitDy=0;exitPerimeter=0;fontSize=11;" edge="1" parent="1" source="1996">
                    <mxGeometry width="50" height="50" relative="1" as="geometry">
                        <mxPoint x="-2369.9100000000003" y="-1158.5299999999997" as="sourcePoint"/>
                        <mxPoint x="-2360" y="-1186.6" as="targetPoint"/>
                    </mxGeometry>
                </mxCell>
                <mxCell id="2014" value="" style="endArrow=oval;html=1;fillStyle=auto;strokeWidth=1;startSize=6;endSize=6;fillColor=#000000;startArrow=none;startFill=0;endFill=0;exitX=0.611;exitY=0.005;exitDx=0;exitDy=0;fontSize=11;exitPerimeter=0;" edge="1" parent="1" source="1996">
                    <mxGeometry width="50" height="50" relative="1" as="geometry">
                        <mxPoint x="-2345.15" y="-1158.8499999999997" as="sourcePoint"/>
                        <mxPoint x="-2290" y="-1186.6" as="targetPoint"/>
                    </mxGeometry>
                </mxCell>
                <mxCell id="2015" value="" style="endArrow=oval;html=1;fillStyle=auto;strokeWidth=1;startSize=6;endSize=6;fillColor=#000000;startArrow=none;startFill=0;endFill=1;fontSize=11;exitX=1;exitY=0.5;exitDx=0;exitDy=0;" edge="1" parent="1" source="1996">
                    <mxGeometry width="50" height="50" relative="1" as="geometry">
                        <mxPoint x="-2320" y="-1185.5199999999998" as="sourcePoint"/>
                        <mxPoint x="-2230" y="-1138.6" as="targetPoint"/>
                    </mxGeometry>
                </mxCell>
                <mxCell id="2016" value="codice" style="text;html=1;align=center;verticalAlign=middle;resizable=0;points=[];autosize=1;strokeColor=none;fillColor=none;fontSize=11;" vertex="1" parent="1">
                    <mxGeometry x="-2238" y="-1153.5299999999997" width="60" height="30" as="geometry"/>
                </mxCell>
                <mxCell id="2017" value="nome" style="text;html=1;align=center;verticalAlign=middle;resizable=0;points=[];autosize=1;strokeColor=none;fillColor=none;fontSize=11;" vertex="1" parent="1">
                    <mxGeometry x="-2406.9999999999995" y="-1203.09" width="50" height="30" as="geometry"/>
                </mxCell>
                <mxCell id="2018" value="" style="endArrow=oval;html=1;fillStyle=auto;strokeWidth=1;startSize=6;endSize=6;fillColor=#000000;startArrow=none;startFill=0;endFill=1;fontSize=11;exitX=1;exitY=0.5;exitDx=0;exitDy=0;" edge="1" parent="1" source="1997">
                    <mxGeometry width="50" height="50" relative="1" as="geometry">
                        <mxPoint x="-2334" y="-955.2600000000001" as="sourcePoint"/>
                        <mxPoint x="-2247.54" y="-999.93" as="targetPoint"/>
                    </mxGeometry>
                </mxCell>
                <mxCell id="2019" value="nome provider" style="text;html=1;align=center;verticalAlign=middle;resizable=0;points=[];autosize=1;strokeColor=none;fillColor=none;fontSize=11;" vertex="1" parent="1">
                    <mxGeometry x="-2250" y="-1015.0000000000001" width="90" height="30" as="geometry"/>
                </mxCell>
                <mxCell id="2020" value="cognome" style="text;html=1;align=center;verticalAlign=middle;resizable=0;points=[];autosize=1;strokeColor=none;fillColor=none;" vertex="1" parent="1">
                    <mxGeometry x="-2295" y="-1203.09" width="70" height="30" as="geometry"/>
                </mxCell>
                <mxCell id="2021" value="" style="endArrow=none;html=1;entryX=0;entryY=0.5;entryDx=0;entryDy=0;exitX=1;exitY=0.5;exitDx=0;exitDy=0;" edge="1" parent="1" source="1413" target="1994">
                    <mxGeometry width="50" height="50" relative="1" as="geometry">
                        <mxPoint x="-2670" y="-1050" as="sourcePoint"/>
                        <mxPoint x="-2530" y="-1130" as="targetPoint"/>
                        <Array as="points">
                            <mxPoint x="-2640" y="-1070"/>
                            <mxPoint x="-2640" y="-1139"/>
                        </Array>
                    </mxGeometry>
                </mxCell>
                <mxCell id="2022" value="" style="endArrow=none;html=1;entryX=0;entryY=0.5;entryDx=0;entryDy=0;exitX=1;exitY=0.75;exitDx=0;exitDy=0;" edge="1" parent="1" source="1413" target="1995">
                    <mxGeometry width="50" height="50" relative="1" as="geometry">
                        <mxPoint x="-2710" y="-1030" as="sourcePoint"/>
                        <mxPoint x="-2520" y="-970" as="targetPoint"/>
                        <Array as="points">
                            <mxPoint x="-2640" y="-1060"/>
                            <mxPoint x="-2640" y="-1000"/>
                        </Array>
                    </mxGeometry>
                </mxCell>
            </root>
        </mxGraphModel>
    </diagram>
</mxfile>